solid OpenSCAD_Model
  facet normal 0 0 -1
    outer loop
      vertex 0 23.4 0
      vertex 4 30.8 0
      vertex 4 23.4 0
    endloop
  endfacet
  facet normal 0 0 -1
    outer loop
      vertex 4 30.8 0
      vertex 0 32.8 0
      vertex 2 34.8 0
    endloop
  endfacet
  facet normal 0 0 -1
    outer loop
      vertex 2 34.8 0
      vertex 0 32.8 0
      vertex 1.73894 34.7829 0
    endloop
  endfacet
  facet normal 0 0 -1
    outer loop
      vertex 1.73894 34.7829 0
      vertex 0 32.8 0
      vertex 1.48236 34.7318 0
    endloop
  endfacet
  facet normal 0 0 -1
    outer loop
      vertex 1.48236 34.7318 0
      vertex 0 32.8 0
      vertex 1.23462 34.6478 0
    endloop
  endfacet
  facet normal 0 0 -1
    outer loop
      vertex 1.23462 34.6478 0
      vertex 0 32.8 0
      vertex 1 34.532 0
    endloop
  endfacet
  facet normal 0 0 -1
    outer loop
      vertex 1 34.532 0
      vertex 0 32.8 0
      vertex 0.782471 34.3867 0
    endloop
  endfacet
  facet normal 0 0 -1
    outer loop
      vertex 0.782471 34.3867 0
      vertex 0 32.8 0
      vertex 0.585785 34.2142 0
    endloop
  endfacet
  facet normal 0 0 -1
    outer loop
      vertex 0.585785 34.2142 0
      vertex 0 32.8 0
      vertex 0.413284 34.0175 0
    endloop
  endfacet
  facet normal 0 0 -1
    outer loop
      vertex 0.413284 34.0175 0
      vertex 0 32.8 0
      vertex 0.267944 33.8 0
    endloop
  endfacet
  facet normal 0 0 -1
    outer loop
      vertex 0.267944 33.8 0
      vertex 0 32.8 0
      vertex 0.152237 33.5654 0
    endloop
  endfacet
  facet normal 0 0 -1
    outer loop
      vertex 0.152237 33.5654 0
      vertex 0 32.8 0
      vertex 0.0681458 33.3176 0
    endloop
  endfacet
  facet normal -0 0 -1
    outer loop
      vertex 4 30.8 0
      vertex 0 23.4 0
      vertex 0 32.8 0
    endloop
  endfacet
  facet normal 0 0 -1
    outer loop
      vertex 0.0681458 33.3176 0
      vertex 0 32.8 0
      vertex 0.0171051 33.0611 0
    endloop
  endfacet
  facet normal 0 0 -1
    outer loop
      vertex 80.8 30.8 0
      vertex 84.8 32.8 0
      vertex 84.8 23.4 0
    endloop
  endfacet
  facet normal 0 -0 -1
    outer loop
      vertex 82.8 34.8 0
      vertex 84.8 32.8 0
      vertex 80.8 30.8 0
    endloop
  endfacet
  facet normal 0 0 -1
    outer loop
      vertex 84.8 32.8 0
      vertex 82.8 34.8 0
      vertex 84.7829 33.0611 0
    endloop
  endfacet
  facet normal 0 0 -1
    outer loop
      vertex 84.7829 33.0611 0
      vertex 82.8 34.8 0
      vertex 84.7318 33.3176 0
    endloop
  endfacet
  facet normal 0 0 -1
    outer loop
      vertex 84.7318 33.3176 0
      vertex 82.8 34.8 0
      vertex 84.6478 33.5654 0
    endloop
  endfacet
  facet normal 0 0 -1
    outer loop
      vertex 84.6478 33.5654 0
      vertex 82.8 34.8 0
      vertex 84.532 33.8 0
    endloop
  endfacet
  facet normal 0 0 -1
    outer loop
      vertex 84.532 33.8 0
      vertex 82.8 34.8 0
      vertex 84.3867 34.0175 0
    endloop
  endfacet
  facet normal 0 0 -1
    outer loop
      vertex 84.3867 34.0175 0
      vertex 82.8 34.8 0
      vertex 84.2142 34.2142 0
    endloop
  endfacet
  facet normal 0 0 -1
    outer loop
      vertex 84.2142 34.2142 0
      vertex 82.8 34.8 0
      vertex 84.0175 34.3867 0
    endloop
  endfacet
  facet normal 0 0 -1
    outer loop
      vertex 84.0175 34.3867 0
      vertex 82.8 34.8 0
      vertex 83.8 34.532 0
    endloop
  endfacet
  facet normal 0 0 -1
    outer loop
      vertex 83.8 34.532 0
      vertex 82.8 34.8 0
      vertex 83.5654 34.6478 0
    endloop
  endfacet
  facet normal 0 0 -1
    outer loop
      vertex 83.5654 34.6478 0
      vertex 82.8 34.8 0
      vertex 83.3176 34.7318 0
    endloop
  endfacet
  facet normal 0 0 -1
    outer loop
      vertex 80.8 30.8 0
      vertex 84.8 23.4 0
      vertex 80.8 23.4 0
    endloop
  endfacet
  facet normal 0 0 -1
    outer loop
      vertex 83.3176 34.7318 0
      vertex 82.8 34.8 0
      vertex 83.0611 34.7829 0
    endloop
  endfacet
  facet normal 0 0 -1
    outer loop
      vertex 4 30.8 0
      vertex 82.8 34.8 0
      vertex 80.8 30.8 0
    endloop
  endfacet
  facet normal -0 0 -1
    outer loop
      vertex 82.8 34.8 0
      vertex 4 30.8 0
      vertex 2 34.8 0
    endloop
  endfacet
  facet normal 0 0 -1
    outer loop
      vertex 84.8 2 0
      vertex 80.882 5.72589 0
      vertex 80.9 6 0
    endloop
  endfacet
  facet normal 0 -0 -1
    outer loop
      vertex 80.8284 5.45648 0
      vertex 84.8 2 0
      vertex 80.8 4 0
    endloop
  endfacet
  facet normal 0 0 -1
    outer loop
      vertex 84.8 2 0
      vertex 80.8284 5.45648 0
      vertex 80.882 5.72589 0
    endloop
  endfacet
  facet normal 0 0 -1
    outer loop
      vertex 79.3435 3.97156 0
      vertex 80.8 4 0
      vertex 82.8 0 0
    endloop
  endfacet
  facet normal -0 0 -1
    outer loop
      vertex 80.8 4 0
      vertex 79.3435 3.97156 0
      vertex 79.4273 4 0
    endloop
  endfacet
  facet normal 0 0 -1
    outer loop
      vertex 82.8 0 0
      vertex 79.0741 3.91796 0
      vertex 79.3435 3.97156 0
    endloop
  endfacet
  facet normal 0 0 -1
    outer loop
      vertex 82.8 0 0
      vertex 78.8 3.9 0
      vertex 79.0741 3.91796 0
    endloop
  endfacet
  facet normal 0 0 -1
    outer loop
      vertex 82.8 0 0
      vertex 78.5259 3.91796 0
      vertex 78.8 3.9 0
    endloop
  endfacet
  facet normal 0 0 -1
    outer loop
      vertex 82.8 0 0
      vertex 78.2565 3.97156 0
      vertex 78.5259 3.91796 0
    endloop
  endfacet
  facet normal 0 0 -1
    outer loop
      vertex 82.8 0 0
      vertex 78.1727 4 0
      vertex 78.2565 3.97156 0
    endloop
  endfacet
  facet normal 0 0 -1
    outer loop
      vertex 51.4 0 0
      vertex 78.1727 4 0
      vertex 82.8 0 0
    endloop
  endfacet
  facet normal -0 0 -1
    outer loop
      vertex 78.1727 4 0
      vertex 51.4 0 0
      vertex 51.4 4 0
    endloop
  endfacet
  facet normal 0 0 -1
    outer loop
      vertex 82.8 0 0
      vertex 84.8 2 0
      vertex 84.7829 1.73894 0
    endloop
  endfacet
  facet normal 0 0 -1
    outer loop
      vertex 82.8 0 0
      vertex 84.7829 1.73894 0
      vertex 84.7318 1.48236 0
    endloop
  endfacet
  facet normal 0 0 -1
    outer loop
      vertex 82.8 0 0
      vertex 84.7318 1.48236 0
      vertex 84.6478 1.23462 0
    endloop
  endfacet
  facet normal 0 0 -1
    outer loop
      vertex 82.8 0 0
      vertex 84.6478 1.23462 0
      vertex 84.532 1 0
    endloop
  endfacet
  facet normal 0 0 -1
    outer loop
      vertex 82.8 0 0
      vertex 84.532 1 0
      vertex 84.3867 0.782471 0
    endloop
  endfacet
  facet normal 0 0 -1
    outer loop
      vertex 82.8 0 0
      vertex 84.3867 0.782471 0
      vertex 84.2142 0.585785 0
    endloop
  endfacet
  facet normal 0 0 -1
    outer loop
      vertex 82.8 0 0
      vertex 84.2142 0.585785 0
      vertex 84.0175 0.413284 0
    endloop
  endfacet
  facet normal 0 0 -1
    outer loop
      vertex 82.8 0 0
      vertex 84.0175 0.413284 0
      vertex 83.8 0.267944 0
    endloop
  endfacet
  facet normal 0 0 -1
    outer loop
      vertex 82.8 0 0
      vertex 83.8 0.267944 0
      vertex 83.5654 0.152237 0
    endloop
  endfacet
  facet normal 0 0 -1
    outer loop
      vertex 82.8 0 0
      vertex 83.5654 0.152237 0
      vertex 83.3176 0.0681458 0
    endloop
  endfacet
  facet normal 0 0 -1
    outer loop
      vertex 82.8 0 0
      vertex 83.3176 0.0681458 0
      vertex 83.0611 0.0171051 0
    endloop
  endfacet
  facet normal 0 0 -1
    outer loop
      vertex 80.8 4 0
      vertex 84.8 2 0
      vertex 82.8 0 0
    endloop
  endfacet
  facet normal 0 0 -1
    outer loop
      vertex 84.8 2 0
      vertex 80.9 6 0
      vertex 80.882 6.2741 0
    endloop
  endfacet
  facet normal 0 0 -1
    outer loop
      vertex 84.8 2 0
      vertex 80.882 6.2741 0
      vertex 84.8 11.4 0
    endloop
  endfacet
  facet normal 0 0 -1
    outer loop
      vertex 80.8284 6.54352 0
      vertex 84.8 11.4 0
      vertex 80.882 6.2741 0
    endloop
  endfacet
  facet normal 0 0 -1
    outer loop
      vertex 80.8 6.62735 0
      vertex 84.8 11.4 0
      vertex 80.8284 6.54352 0
    endloop
  endfacet
  facet normal -0 0 -1
    outer loop
      vertex 84.8 11.4 0
      vertex 80.8 6.62735 0
      vertex 80.8 11.4 0
    endloop
  endfacet
  facet normal 0 0 -1
    outer loop
      vertex 80.8284 5.45648 0
      vertex 80.8 4 0
      vertex 80.8 5.37265 0
    endloop
  endfacet
  facet normal 0 0 -1
    outer loop
      vertex 33.4 0 0
      vertex 6.62731 4 0
      vertex 33.4 4 0
    endloop
  endfacet
  facet normal 0 0 -1
    outer loop
      vertex 2 0 0
      vertex 6.62731 4 0
      vertex 33.4 0 0
    endloop
  endfacet
  facet normal 0 0 -1
    outer loop
      vertex 6.62731 4 0
      vertex 2 0 0
      vertex 6.54352 3.97156 0
    endloop
  endfacet
  facet normal 0 0 -1
    outer loop
      vertex 6.54352 3.97156 0
      vertex 2 0 0
      vertex 6.2741 3.91796 0
    endloop
  endfacet
  facet normal 0 0 -1
    outer loop
      vertex 6.2741 3.91796 0
      vertex 2 0 0
      vertex 6 3.9 0
    endloop
  endfacet
  facet normal 0 0 -1
    outer loop
      vertex 5.45648 3.97156 0
      vertex 4 4 0
      vertex 5.37268 4 0
    endloop
  endfacet
  facet normal 0 0 -1
    outer loop
      vertex 2 0 0
      vertex 5.45648 3.97156 0
      vertex 5.72589 3.91796 0
    endloop
  endfacet
  facet normal -0 0 -1
    outer loop
      vertex 6 3.9 0
      vertex 2 0 0
      vertex 5.72589 3.91796 0
    endloop
  endfacet
  facet normal 0 0 -1
    outer loop
      vertex 4 4 0
      vertex 3.97156 5.45648 0
      vertex 4 5.37268 0
    endloop
  endfacet
  facet normal 0 0 -1
    outer loop
      vertex 0 2 0
      vertex 3.97156 5.45648 0
      vertex 4 4 0
    endloop
  endfacet
  facet normal -0 0 -1
    outer loop
      vertex 3.97156 5.45648 0
      vertex 0 2 0
      vertex 3.91796 5.72589 0
    endloop
  endfacet
  facet normal 0 0 -1
    outer loop
      vertex 0 2 0
      vertex 4 4 0
      vertex 2 0 0
    endloop
  endfacet
  facet normal -0 0 -1
    outer loop
      vertex 5.45648 3.97156 0
      vertex 2 0 0
      vertex 4 4 0
    endloop
  endfacet
  facet normal 0 0 -1
    outer loop
      vertex 0 11.4 0
      vertex 4 6.62731 0
      vertex 3.97156 6.54352 0
    endloop
  endfacet
  facet normal 0 0 -1
    outer loop
      vertex 0 11.4 0
      vertex 3.97156 6.54352 0
      vertex 3.91796 6.2741 0
    endloop
  endfacet
  facet normal 0 0 -1
    outer loop
      vertex 0 2 0
      vertex 3.91796 6.2741 0
      vertex 3.9 6 0
    endloop
  endfacet
  facet normal -0 0 -1
    outer loop
      vertex 3.91796 5.72589 0
      vertex 0 2 0
      vertex 3.9 6 0
    endloop
  endfacet
  facet normal 0 0 -1
    outer loop
      vertex 0 2 0
      vertex 2 0 0
      vertex 1.73894 0.0171051 0
    endloop
  endfacet
  facet normal 0 0 -1
    outer loop
      vertex 0 2 0
      vertex 1.73894 0.0171051 0
      vertex 1.48236 0.0681458 0
    endloop
  endfacet
  facet normal 0 0 -1
    outer loop
      vertex 0 2 0
      vertex 1.48236 0.0681458 0
      vertex 1.23462 0.152237 0
    endloop
  endfacet
  facet normal 0 0 -1
    outer loop
      vertex 0 2 0
      vertex 1.23462 0.152237 0
      vertex 1 0.267944 0
    endloop
  endfacet
  facet normal 0 0 -1
    outer loop
      vertex 0 2 0
      vertex 1 0.267944 0
      vertex 0.782471 0.413284 0
    endloop
  endfacet
  facet normal 0 0 -1
    outer loop
      vertex 0 2 0
      vertex 0.782471 0.413284 0
      vertex 0.585785 0.585785 0
    endloop
  endfacet
  facet normal 0 0 -1
    outer loop
      vertex 0 2 0
      vertex 0.585785 0.585785 0
      vertex 0.413284 0.782471 0
    endloop
  endfacet
  facet normal 0 0 -1
    outer loop
      vertex 0 2 0
      vertex 0.413284 0.782471 0
      vertex 0.267944 1 0
    endloop
  endfacet
  facet normal 0 0 -1
    outer loop
      vertex 0 2 0
      vertex 0.267944 1 0
      vertex 0.152237 1.23462 0
    endloop
  endfacet
  facet normal 0 0 -1
    outer loop
      vertex 0 2 0
      vertex 0.152237 1.23462 0
      vertex 0.0681458 1.48236 0
    endloop
  endfacet
  facet normal 0 0 -1
    outer loop
      vertex 0 2 0
      vertex 0.0681458 1.48236 0
      vertex 0.0171051 1.73894 0
    endloop
  endfacet
  facet normal -0 0 -1
    outer loop
      vertex 3.91796 6.2741 0
      vertex 0 2 0
      vertex 0 11.4 0
    endloop
  endfacet
  facet normal 0 0 -1
    outer loop
      vertex 4 6.62731 0
      vertex 0 11.4 0
      vertex 4 11.4 0
    endloop
  endfacet
  facet normal 0 0 1
    outer loop
      vertex 82.8 34.8 1.6
      vertex 76.8 31.4 1.6
      vertex 80.8 30.8 1.6
    endloop
  endfacet
  facet normal 0 0 1
    outer loop
      vertex 82.8 34.8 1.6
      vertex 66.8 31.4 1.6
      vertex 76.8 31.4 1.6
    endloop
  endfacet
  facet normal 0 0 1
    outer loop
      vertex 64.8 30.8 1.6
      vertex 66.8 31.4 1.6
      vertex 64.8 31.8 1.6
    endloop
  endfacet
  facet normal 0 0 1
    outer loop
      vertex 82.8 34.8 1.6
      vertex 64.8 31.8 1.6
      vertex 66.8 31.4 1.6
    endloop
  endfacet
  facet normal 0 0 1
    outer loop
      vertex 82.8 34.8 1.6
      vertex 56.8 31.8 1.6
      vertex 64.8 31.8 1.6
    endloop
  endfacet
  facet normal 0 0 1
    outer loop
      vertex 56.8 31.8 1.6
      vertex 18 31.4 1.6
      vertex 56.8 30.8 1.6
    endloop
  endfacet
  facet normal -0 0 1
    outer loop
      vertex 2 34.8 1.6
      vertex 56.8 31.8 1.6
      vertex 82.8 34.8 1.6
    endloop
  endfacet
  facet normal 0 0 1
    outer loop
      vertex 56.8 31.8 1.6
      vertex 2 34.8 1.6
      vertex 18 31.4 1.6
    endloop
  endfacet
  facet normal 0 0 1
    outer loop
      vertex 18 31.4 1.6
      vertex 2 34.8 1.6
      vertex 12 31.8 1.6
    endloop
  endfacet
  facet normal 0 0 1
    outer loop
      vertex 0 32.8 1.6
      vertex 4 27.8 1.6
      vertex 4 31.8 1.6
    endloop
  endfacet
  facet normal 0 0 1
    outer loop
      vertex 4 27.8 1.6
      vertex 3.4 26.8 1.6
      vertex 4 26.8 1.6
    endloop
  endfacet
  facet normal 0 0 1
    outer loop
      vertex 12 31.8 1.6
      vertex 2 34.8 1.6
      vertex 4 31.8 1.6
    endloop
  endfacet
  facet normal -0 0 1
    outer loop
      vertex 0 32.8 1.6
      vertex 4 31.8 1.6
      vertex 2 34.8 1.6
    endloop
  endfacet
  facet normal 0 0 1
    outer loop
      vertex 4 27.8 1.6
      vertex 0 32.8 1.6
      vertex 3.4 26.8 1.6
    endloop
  endfacet
  facet normal 0 0 1
    outer loop
      vertex 0 32.8 1.6
      vertex 2 34.8 1.6
      vertex 1.73894 34.7829 1.6
    endloop
  endfacet
  facet normal 0 0 1
    outer loop
      vertex 0 32.8 1.6
      vertex 1.73894 34.7829 1.6
      vertex 1.48236 34.7318 1.6
    endloop
  endfacet
  facet normal 0 0 1
    outer loop
      vertex 0 32.8 1.6
      vertex 1.48236 34.7318 1.6
      vertex 1.23462 34.6478 1.6
    endloop
  endfacet
  facet normal 0 0 1
    outer loop
      vertex 0 32.8 1.6
      vertex 1.23462 34.6478 1.6
      vertex 1 34.532 1.6
    endloop
  endfacet
  facet normal 0 0 1
    outer loop
      vertex 0 32.8 1.6
      vertex 1 34.532 1.6
      vertex 0.782471 34.3867 1.6
    endloop
  endfacet
  facet normal 0 0 1
    outer loop
      vertex 0 32.8 1.6
      vertex 0.782471 34.3867 1.6
      vertex 0.585785 34.2142 1.6
    endloop
  endfacet
  facet normal 0 0 1
    outer loop
      vertex 0 32.8 1.6
      vertex 0.585785 34.2142 1.6
      vertex 0.413284 34.0175 1.6
    endloop
  endfacet
  facet normal 0 0 1
    outer loop
      vertex 0 32.8 1.6
      vertex 0.413284 34.0175 1.6
      vertex 0.267944 33.8 1.6
    endloop
  endfacet
  facet normal 0 0 1
    outer loop
      vertex 0 32.8 1.6
      vertex 0.267944 33.8 1.6
      vertex 0.152237 33.5654 1.6
    endloop
  endfacet
  facet normal 0 0 1
    outer loop
      vertex 0 32.8 1.6
      vertex 0.152237 33.5654 1.6
      vertex 0.0681458 33.3176 1.6
    endloop
  endfacet
  facet normal 0 0 1
    outer loop
      vertex 0 32.8 1.6
      vertex 0.0681458 33.3176 1.6
      vertex 0.0171051 33.0611 1.6
    endloop
  endfacet
  facet normal 0 0 1
    outer loop
      vertex 0 23.4 1.6
      vertex 3.4 26.8 1.6
      vertex 0 32.8 1.6
    endloop
  endfacet
  facet normal 0 0 1
    outer loop
      vertex 3.4 26.8 1.6
      vertex 0 23.4 1.6
      vertex 3.4 23.4 1.6
    endloop
  endfacet
  facet normal 0 0 1
    outer loop
      vertex 82.8 34.8 1.6
      vertex 84.8 32.8 1.6
      vertex 84.7829 33.0611 1.6
    endloop
  endfacet
  facet normal 0 0 1
    outer loop
      vertex 82.8 34.8 1.6
      vertex 84.7829 33.0611 1.6
      vertex 84.7318 33.3176 1.6
    endloop
  endfacet
  facet normal 0 0 1
    outer loop
      vertex 82.8 34.8 1.6
      vertex 84.7318 33.3176 1.6
      vertex 84.6478 33.5654 1.6
    endloop
  endfacet
  facet normal 0 0 1
    outer loop
      vertex 82.8 34.8 1.6
      vertex 84.6478 33.5654 1.6
      vertex 84.532 33.8 1.6
    endloop
  endfacet
  facet normal 0 0 1
    outer loop
      vertex 82.8 34.8 1.6
      vertex 84.532 33.8 1.6
      vertex 84.3867 34.0175 1.6
    endloop
  endfacet
  facet normal 0 0 1
    outer loop
      vertex 82.8 34.8 1.6
      vertex 84.3867 34.0175 1.6
      vertex 84.2142 34.2142 1.6
    endloop
  endfacet
  facet normal 0 0 1
    outer loop
      vertex 82.8 34.8 1.6
      vertex 84.2142 34.2142 1.6
      vertex 84.0175 34.3867 1.6
    endloop
  endfacet
  facet normal 0 0 1
    outer loop
      vertex 82.8 34.8 1.6
      vertex 84.0175 34.3867 1.6
      vertex 83.8 34.532 1.6
    endloop
  endfacet
  facet normal 0 0 1
    outer loop
      vertex 82.8 34.8 1.6
      vertex 83.8 34.532 1.6
      vertex 83.5654 34.6478 1.6
    endloop
  endfacet
  facet normal 0 0 1
    outer loop
      vertex 82.8 34.8 1.6
      vertex 83.5654 34.6478 1.6
      vertex 83.3176 34.7318 1.6
    endloop
  endfacet
  facet normal 0 0 1
    outer loop
      vertex 82.8 34.8 1.6
      vertex 83.3176 34.7318 1.6
      vertex 83.0611 34.7829 1.6
    endloop
  endfacet
  facet normal 0 0 1
    outer loop
      vertex 84.8 32.8 1.6
      vertex 82.8 34.8 1.6
      vertex 80.8 30.8 1.6
    endloop
  endfacet
  facet normal 0 0 1
    outer loop
      vertex 84.8 32.8 1.6
      vertex 80.8 30.8 1.6
      vertex 84.8 23.4 1.6
    endloop
  endfacet
  facet normal 0 0 1
    outer loop
      vertex 84.8 23.4 1.6
      vertex 80.8 30.8 1.6
      vertex 80.8 23.4 1.6
    endloop
  endfacet
  facet normal 0 0 1
    outer loop
      vertex 80.8 30.8 1.6
      vertex 76.8 31.4 1.6
      vertex 76.8 30.8 1.6
    endloop
  endfacet
  facet normal 0 0 1
    outer loop
      vertex 66.8 31.4 1.6
      vertex 64.8 30.8 1.6
      vertex 66.8 30.8 1.6
    endloop
  endfacet
  facet normal 0 0 1
    outer loop
      vertex 56.8 30.8 1.6
      vertex 18 31.4 1.6
      vertex 18 30.8 1.6
    endloop
  endfacet
  facet normal 0 0 1
    outer loop
      vertex 18 31.4 1.6
      vertex 12 31.8 1.6
      vertex 12 31.4 1.6
    endloop
  endfacet
  facet normal 0 0 -1
    outer loop
      vertex 12 30.6 1.6
      vertex 18 30.8 1.6
      vertex 18 30.6 1.6
    endloop
  endfacet
  facet normal -0 0 -1
    outer loop
      vertex 18 30.8 1.6
      vertex 12 30.6 1.6
      vertex 12 30.8 1.6
    endloop
  endfacet
  facet normal 0 0 -1
    outer loop
      vertex 66.8 30.6 1.6
      vertex 76.8 30.8 1.6
      vertex 76.8 30.6 1.6
    endloop
  endfacet
  facet normal -0 0 -1
    outer loop
      vertex 76.8 30.8 1.6
      vertex 66.8 30.6 1.6
      vertex 66.8 30.8 1.6
    endloop
  endfacet
  facet normal 0 0 -1
    outer loop
      vertex 4.2 19.8 1.6
      vertex 4 23.4 1.6
      vertex 4.2 26.8 1.6
    endloop
  endfacet
  facet normal 0 0 -1
    outer loop
      vertex 3.4 19.8 1.6
      vertex 4 23.4 1.6
      vertex 4.2 19.8 1.6
    endloop
  endfacet
  facet normal -0 0 -1
    outer loop
      vertex 4 23.4 1.6
      vertex 3.4 19.8 1.6
      vertex 3.4 23.4 1.6
    endloop
  endfacet
  facet normal -0 0 -1
    outer loop
      vertex 4.2 26.8 1.6
      vertex 4 23.4 1.6
      vertex 4 26.8 1.6
    endloop
  endfacet
  facet normal 0 0 1
    outer loop
      vertex 64.8 4 1.6
      vertex 51.4 4 1.6
      vertex 64.8 3 1.6
    endloop
  endfacet
  facet normal -0 0 1
    outer loop
      vertex 80.882 6.2741 1.6
      vertex 84.8 2 1.6
      vertex 84.8 11.4 1.6
    endloop
  endfacet
  facet normal -0 -0 1
    outer loop
      vertex 80.9 6 1.6
      vertex 84.8 2 1.6
      vertex 80.882 6.2741 1.6
    endloop
  endfacet
  facet normal -0 0 1
    outer loop
      vertex 80.8284 5.45648 1.6
      vertex 84.8 2 1.6
      vertex 80.882 5.72589 1.6
    endloop
  endfacet
  facet normal -0 0 1
    outer loop
      vertex 80.8 4 1.6
      vertex 84.8 2 1.6
      vertex 80.8284 5.45648 1.6
    endloop
  endfacet
  facet normal 0 -0 1
    outer loop
      vertex 82.8 0 1.6
      vertex 84.8 2 1.6
      vertex 80.8 4 1.6
    endloop
  endfacet
  facet normal 0 0 1
    outer loop
      vertex 84.8 2 1.6
      vertex 82.8 0 1.6
      vertex 84.7829 1.73894 1.6
    endloop
  endfacet
  facet normal 0 0 1
    outer loop
      vertex 84.7829 1.73894 1.6
      vertex 82.8 0 1.6
      vertex 84.7318 1.48236 1.6
    endloop
  endfacet
  facet normal 0 0 1
    outer loop
      vertex 84.7318 1.48236 1.6
      vertex 82.8 0 1.6
      vertex 84.6478 1.23462 1.6
    endloop
  endfacet
  facet normal 0 0 1
    outer loop
      vertex 84.6478 1.23462 1.6
      vertex 82.8 0 1.6
      vertex 84.532 1 1.6
    endloop
  endfacet
  facet normal 0 0 1
    outer loop
      vertex 84.2142 0.585785 1.6
      vertex 82.8 0 1.6
      vertex 84.0175 0.413284 1.6
    endloop
  endfacet
  facet normal 0 0 1
    outer loop
      vertex 84.0175 0.413284 1.6
      vertex 82.8 0 1.6
      vertex 83.8 0.267944 1.6
    endloop
  endfacet
  facet normal 0 0 1
    outer loop
      vertex 83.8 0.267944 1.6
      vertex 82.8 0 1.6
      vertex 83.5654 0.152237 1.6
    endloop
  endfacet
  facet normal 0 0 1
    outer loop
      vertex 84.532 1 1.6
      vertex 82.8 0 1.6
      vertex 84.3867 0.782471 1.6
    endloop
  endfacet
  facet normal -0 0 1
    outer loop
      vertex 80.882 5.72589 1.6
      vertex 84.8 2 1.6
      vertex 80.9 6 1.6
    endloop
  endfacet
  facet normal 0 0 1
    outer loop
      vertex 84.8 11.4 1.6
      vertex 80.8284 6.54352 1.6
      vertex 80.882 6.2741 1.6
    endloop
  endfacet
  facet normal 0 0 1
    outer loop
      vertex 80.8 6.62735 1.6
      vertex 84.8 11.4 1.6
      vertex 80.8 11.4 1.6
    endloop
  endfacet
  facet normal 0 0 1
    outer loop
      vertex 84.8 11.4 1.6
      vertex 80.8 6.62735 1.6
      vertex 80.8284 6.54352 1.6
    endloop
  endfacet
  facet normal 0 0 1
    outer loop
      vertex 83.5654 0.152237 1.6
      vertex 82.8 0 1.6
      vertex 83.3176 0.0681458 1.6
    endloop
  endfacet
  facet normal 0 0 1
    outer loop
      vertex 84.3867 0.782471 1.6
      vertex 82.8 0 1.6
      vertex 84.2142 0.585785 1.6
    endloop
  endfacet
  facet normal 0 0 1
    outer loop
      vertex 80.8 4 1.6
      vertex 80.8284 5.45648 1.6
      vertex 80.8 5.37265 1.6
    endloop
  endfacet
  facet normal 0 0 1
    outer loop
      vertex 83.3176 0.0681458 1.6
      vertex 82.8 0 1.6
      vertex 83.0611 0.0171051 1.6
    endloop
  endfacet
  facet normal 0 0 1
    outer loop
      vertex 79.3435 3.97156 1.6
      vertex 80.8 4 1.6
      vertex 79.4273 4 1.6
    endloop
  endfacet
  facet normal 0 0 1
    outer loop
      vertex 80.8 4 1.6
      vertex 79.3435 3.97156 1.6
      vertex 82.8 0 1.6
    endloop
  endfacet
  facet normal -0 0 1
    outer loop
      vertex 79.0741 3.91796 1.6
      vertex 82.8 0 1.6
      vertex 79.3435 3.97156 1.6
    endloop
  endfacet
  facet normal -0 0 1
    outer loop
      vertex 78.8 3.9 1.6
      vertex 82.8 0 1.6
      vertex 79.0741 3.91796 1.6
    endloop
  endfacet
  facet normal 0 0 1
    outer loop
      vertex 78.5259 3.91796 1.6
      vertex 82.8 0 1.6
      vertex 78.8 3.9 1.6
    endloop
  endfacet
  facet normal 0 0 1
    outer loop
      vertex 78.2565 3.97156 1.6
      vertex 82.8 0 1.6
      vertex 78.5259 3.91796 1.6
    endloop
  endfacet
  facet normal 0 0 1
    outer loop
      vertex 72.8 3 1.6
      vertex 78.2565 3.97156 1.6
      vertex 78.1727 4 1.6
    endloop
  endfacet
  facet normal 0 0 1
    outer loop
      vertex 72.8 3 1.6
      vertex 78.1727 4 1.6
      vertex 72.8 4 1.6
    endloop
  endfacet
  facet normal 0 0 1
    outer loop
      vertex 78.2565 3.97156 1.6
      vertex 72.8 3 1.6
      vertex 82.8 0 1.6
    endloop
  endfacet
  facet normal -0 0 1
    outer loop
      vertex 64.8 3 1.6
      vertex 82.8 0 1.6
      vertex 72.8 3 1.6
    endloop
  endfacet
  facet normal 0 0 1
    outer loop
      vertex 51.4 0 1.6
      vertex 64.8 3 1.6
      vertex 51.4 4 1.6
    endloop
  endfacet
  facet normal 0 0 1
    outer loop
      vertex 64.8 3 1.6
      vertex 51.4 0 1.6
      vertex 82.8 0 1.6
    endloop
  endfacet
  facet normal 0 0 -1
    outer loop
      vertex 4 11.4 1.6
      vertex 4.2 8 1.6
      vertex 4 8 1.6
    endloop
  endfacet
  facet normal 0 0 -1
    outer loop
      vertex 4.2 8 1.6
      vertex 4 11.4 1.6
      vertex 4.2 15 1.6
    endloop
  endfacet
  facet normal 0 0 -1
    outer loop
      vertex 3.4 15 1.6
      vertex 4 11.4 1.6
      vertex 3.4 11.4 1.6
    endloop
  endfacet
  facet normal 0 0 -1
    outer loop
      vertex 4 11.4 1.6
      vertex 3.4 15 1.6
      vertex 4.2 15 1.6
    endloop
  endfacet
  facet normal -0 0 1
    outer loop
      vertex 3.4 8 1.6
      vertex 4 6.62731 1.6
      vertex 4 8 1.6
    endloop
  endfacet
  facet normal 0 0 1
    outer loop
      vertex 4 6.62731 1.6
      vertex 3.4 8 1.6
      vertex 3.97156 6.54352 1.6
    endloop
  endfacet
  facet normal 0 0 1
    outer loop
      vertex 3.97156 6.54352 1.6
      vertex 3.4 8 1.6
      vertex 3.91796 6.2741 1.6
    endloop
  endfacet
  facet normal 0 0 1
    outer loop
      vertex 3.91796 6.2741 1.6
      vertex 3.4 8 1.6
      vertex 3.9 6 1.6
    endloop
  endfacet
  facet normal 0 0 1
    outer loop
      vertex 4 5.37268 1.6
      vertex 3.97156 5.45648 1.6
      vertex 4 4 1.6
    endloop
  endfacet
  facet normal 0 0 1
    outer loop
      vertex 12 4 1.6
      vertex 6.62731 4 1.6
      vertex 12 3 1.6
    endloop
  endfacet
  facet normal 0 0 1
    outer loop
      vertex 20 3 1.6
      vertex 33.4 4 1.6
      vertex 20 4 1.6
    endloop
  endfacet
  facet normal 0 0 1
    outer loop
      vertex 33.4 4 1.6
      vertex 20 3 1.6
      vertex 33.4 0 1.6
    endloop
  endfacet
  facet normal 0 0 1
    outer loop
      vertex 2 0 1.6
      vertex 20 3 1.6
      vertex 12 3 1.6
    endloop
  endfacet
  facet normal -0 0 1
    outer loop
      vertex 6.54352 3.97156 1.6
      vertex 12 3 1.6
      vertex 6.62731 4 1.6
    endloop
  endfacet
  facet normal 0 0 1
    outer loop
      vertex 2 0 1.6
      vertex 6.54352 3.97156 1.6
      vertex 6.2741 3.91796 1.6
    endloop
  endfacet
  facet normal 0 0 1
    outer loop
      vertex 2 0 1.6
      vertex 6.2741 3.91796 1.6
      vertex 6 3.9 1.6
    endloop
  endfacet
  facet normal 0 0 1
    outer loop
      vertex 2 0 1.6
      vertex 6 3.9 1.6
      vertex 5.72589 3.91796 1.6
    endloop
  endfacet
  facet normal -0 0 1
    outer loop
      vertex 4 4 1.6
      vertex 5.45648 3.97156 1.6
      vertex 5.37268 4 1.6
    endloop
  endfacet
  facet normal 0 0 1
    outer loop
      vertex 2 0 1.6
      vertex 5.45648 3.97156 1.6
      vertex 4 4 1.6
    endloop
  endfacet
  facet normal 0 0 1
    outer loop
      vertex 5.45648 3.97156 1.6
      vertex 2 0 1.6
      vertex 5.72589 3.91796 1.6
    endloop
  endfacet
  facet normal 0 0 1
    outer loop
      vertex 6.54352 3.97156 1.6
      vertex 2 0 1.6
      vertex 12 3 1.6
    endloop
  endfacet
  facet normal 0 0 1
    outer loop
      vertex 0 2 1.6
      vertex 3.97156 5.45648 1.6
      vertex 3.91796 5.72589 1.6
    endloop
  endfacet
  facet normal 0 0 1
    outer loop
      vertex 0 2 1.6
      vertex 3.91796 5.72589 1.6
      vertex 3.9 6 1.6
    endloop
  endfacet
  facet normal 0 0 1
    outer loop
      vertex 0 2 1.6
      vertex 3.9 6 1.6
      vertex 3.4 8 1.6
    endloop
  endfacet
  facet normal 0 0 1
    outer loop
      vertex 20 3 1.6
      vertex 2 0 1.6
      vertex 33.4 0 1.6
    endloop
  endfacet
  facet normal 0 0 1
    outer loop
      vertex 3.97156 5.45648 1.6
      vertex 0 2 1.6
      vertex 4 4 1.6
    endloop
  endfacet
  facet normal -0 0 1
    outer loop
      vertex 0 11.4 1.6
      vertex 3.4 8 1.6
      vertex 3.4 11.4 1.6
    endloop
  endfacet
  facet normal 0 0 1
    outer loop
      vertex 4 4 1.6
      vertex 0 2 1.6
      vertex 2 0 1.6
    endloop
  endfacet
  facet normal 0 0 1
    outer loop
      vertex 2 0 1.6
      vertex 0 2 1.6
      vertex 1.73894 0.0171051 1.6
    endloop
  endfacet
  facet normal 0 0 1
    outer loop
      vertex 1.73894 0.0171051 1.6
      vertex 0 2 1.6
      vertex 1.48236 0.0681458 1.6
    endloop
  endfacet
  facet normal 0 0 1
    outer loop
      vertex 1.48236 0.0681458 1.6
      vertex 0 2 1.6
      vertex 1.23462 0.152237 1.6
    endloop
  endfacet
  facet normal 0 0 1
    outer loop
      vertex 1.23462 0.152237 1.6
      vertex 0 2 1.6
      vertex 1 0.267944 1.6
    endloop
  endfacet
  facet normal 0 0 1
    outer loop
      vertex 1 0.267944 1.6
      vertex 0 2 1.6
      vertex 0.782471 0.413284 1.6
    endloop
  endfacet
  facet normal 0 0 1
    outer loop
      vertex 0.782471 0.413284 1.6
      vertex 0 2 1.6
      vertex 0.585785 0.585785 1.6
    endloop
  endfacet
  facet normal 0 0 1
    outer loop
      vertex 0.585785 0.585785 1.6
      vertex 0 2 1.6
      vertex 0.413284 0.782471 1.6
    endloop
  endfacet
  facet normal 0 0 1
    outer loop
      vertex 0.413284 0.782471 1.6
      vertex 0 2 1.6
      vertex 0.267944 1 1.6
    endloop
  endfacet
  facet normal 0 0 1
    outer loop
      vertex 0.267944 1 1.6
      vertex 0 2 1.6
      vertex 0.152237 1.23462 1.6
    endloop
  endfacet
  facet normal 0 0 1
    outer loop
      vertex 0.152237 1.23462 1.6
      vertex 0 2 1.6
      vertex 0.0681458 1.48236 1.6
    endloop
  endfacet
  facet normal 0 0 1
    outer loop
      vertex 3.4 8 1.6
      vertex 0 11.4 1.6
      vertex 0 2 1.6
    endloop
  endfacet
  facet normal 0 0 1
    outer loop
      vertex 0.0681458 1.48236 1.6
      vertex 0 2 1.6
      vertex 0.0171051 1.73894 1.6
    endloop
  endfacet
  facet normal 0 -1 0
    outer loop
      vertex 4 30.8 0
      vertex 12 30.8 1.55
      vertex 4 30.8 1.55
    endloop
  endfacet
  facet normal 0 -1 -0
    outer loop
      vertex 12 30.8 1.55
      vertex 4 30.8 0
      vertex 56.8 30.8 1.55
    endloop
  endfacet
  facet normal 0 -1 0
    outer loop
      vertex 80.8 30.8 0
      vertex 56.8 30.8 1.55
      vertex 4 30.8 0
    endloop
  endfacet
  facet normal 0 -1 0
    outer loop
      vertex 12 30.8 1.55
      vertex 18 30.8 1.6
      vertex 12 30.8 1.6
    endloop
  endfacet
  facet normal 0 -1 0
    outer loop
      vertex 56.8 30.8 1.55
      vertex 18 30.8 1.6
      vertex 12 30.8 1.55
    endloop
  endfacet
  facet normal 0 -1 0
    outer loop
      vertex 18 30.8 1.6
      vertex 56.8 30.8 1.55
      vertex 56.8 30.8 1.6
    endloop
  endfacet
  facet normal 0 -1 0
    outer loop
      vertex 64.8 30.8 1.55
      vertex 66.8 30.8 1.6
      vertex 64.8 30.8 1.6
    endloop
  endfacet
  facet normal 0 -1 0
    outer loop
      vertex 80.8 30.8 0
      vertex 66.8 30.8 1.6
      vertex 64.8 30.8 1.55
    endloop
  endfacet
  facet normal 0 -1 0
    outer loop
      vertex 66.8 30.8 1.6
      vertex 80.8 30.8 0
      vertex 76.8 30.8 1.6
    endloop
  endfacet
  facet normal 0 -1 0
    outer loop
      vertex 56.8 30.8 1.55
      vertex 80.8 30.8 0
      vertex 64.8 30.8 1.55
    endloop
  endfacet
  facet normal 0 -1 0
    outer loop
      vertex 76.8 30.8 1.6
      vertex 80.8 30.8 0
      vertex 80.8 30.8 1.6
    endloop
  endfacet
  facet normal -1 0 0
    outer loop
      vertex 80.8 23.4 0
      vertex 80.8 30.8 1.6
      vertex 80.8 30.8 0
    endloop
  endfacet
  facet normal -1 -0 0
    outer loop
      vertex 80.8 30.8 1.6
      vertex 80.8 23.4 0
      vertex 80.8 23.4 1.6
    endloop
  endfacet
  facet normal 0 -1 0
    outer loop
      vertex 80.8 23.4 0
      vertex 84.8 23.4 1.6
      vertex 80.8 23.4 1.6
    endloop
  endfacet
  facet normal 0 -1 -0
    outer loop
      vertex 84.8 23.4 1.6
      vertex 80.8 23.4 0
      vertex 84.8 23.4 0
    endloop
  endfacet
  facet normal 1 -0 0
    outer loop
      vertex 84.8 23.4 1.6
      vertex 84.8 32.8 0
      vertex 84.8 32.8 1.6
    endloop
  endfacet
  facet normal 1 0 0
    outer loop
      vertex 84.8 32.8 0
      vertex 84.8 23.4 1.6
      vertex 84.8 23.4 0
    endloop
  endfacet
  facet normal 0.997862 0.0653521 0
    outer loop
      vertex 84.8 32.8 1.6
      vertex 84.7829 33.0611 0
      vertex 84.7829 33.0611 1.6
    endloop
  endfacet
  facet normal 0.997862 0.0653521 0
    outer loop
      vertex 84.7829 33.0611 0
      vertex 84.8 32.8 1.6
      vertex 84.8 32.8 0
    endloop
  endfacet
  facet normal 0.980727 0.195381 0
    outer loop
      vertex 84.7829 33.0611 1.6
      vertex 84.7318 33.3176 0
      vertex 84.7318 33.3176 1.6
    endloop
  endfacet
  facet normal 0.980727 0.195381 0
    outer loop
      vertex 84.7318 33.3176 0
      vertex 84.7829 33.0611 1.6
      vertex 84.7829 33.0611 0
    endloop
  endfacet
  facet normal 0.947066 0.321039 0
    outer loop
      vertex 84.7318 33.3176 1.6
      vertex 84.6478 33.5654 0
      vertex 84.6478 33.5654 1.6
    endloop
  endfacet
  facet normal 0.947066 0.321039 0
    outer loop
      vertex 84.6478 33.5654 0
      vertex 84.7318 33.3176 1.6
      vertex 84.7318 33.3176 0
    endloop
  endfacet
  facet normal 0.896709 0.442621 0
    outer loop
      vertex 84.6478 33.5654 1.6
      vertex 84.532 33.8 0
      vertex 84.532 33.8 1.6
    endloop
  endfacet
  facet normal 0.896709 0.442621 0
    outer loop
      vertex 84.532 33.8 0
      vertex 84.6478 33.5654 1.6
      vertex 84.6478 33.5654 0
    endloop
  endfacet
  facet normal 0.831521 0.555494 0
    outer loop
      vertex 84.532 33.8 1.6
      vertex 84.3867 34.0175 0
      vertex 84.3867 34.0175 1.6
    endloop
  endfacet
  facet normal 0.831521 0.555494 0
    outer loop
      vertex 84.3867 34.0175 0
      vertex 84.532 33.8 1.6
      vertex 84.532 33.8 0
    endloop
  endfacet
  facet normal 0.751842 0.659343 0
    outer loop
      vertex 84.3867 34.0175 1.6
      vertex 84.2142 34.2142 0
      vertex 84.2142 34.2142 1.6
    endloop
  endfacet
  facet normal 0.751842 0.659343 0
    outer loop
      vertex 84.2142 34.2142 0
      vertex 84.3867 34.0175 1.6
      vertex 84.3867 34.0175 0
    endloop
  endfacet
  facet normal 0.659343 0.751842 -0
    outer loop
      vertex 84.2142 34.2142 0
      vertex 84.0175 34.3867 1.6
      vertex 84.2142 34.2142 1.6
    endloop
  endfacet
  facet normal 0.659343 0.751842 0
    outer loop
      vertex 84.0175 34.3867 1.6
      vertex 84.2142 34.2142 0
      vertex 84.0175 34.3867 0
    endloop
  endfacet
  facet normal 0.555494 0.831521 -0
    outer loop
      vertex 84.0175 34.3867 0
      vertex 83.8 34.532 1.6
      vertex 84.0175 34.3867 1.6
    endloop
  endfacet
  facet normal 0.555494 0.831521 0
    outer loop
      vertex 83.8 34.532 1.6
      vertex 84.0175 34.3867 0
      vertex 83.8 34.532 0
    endloop
  endfacet
  facet normal 0.442621 0.896709 -0
    outer loop
      vertex 83.8 34.532 0
      vertex 83.5654 34.6478 1.6
      vertex 83.8 34.532 1.6
    endloop
  endfacet
  facet normal 0.442621 0.896709 0
    outer loop
      vertex 83.5654 34.6478 1.6
      vertex 83.8 34.532 0
      vertex 83.5654 34.6478 0
    endloop
  endfacet
  facet normal 0.321039 0.947066 -0
    outer loop
      vertex 83.5654 34.6478 0
      vertex 83.3176 34.7318 1.6
      vertex 83.5654 34.6478 1.6
    endloop
  endfacet
  facet normal 0.321039 0.947066 0
    outer loop
      vertex 83.3176 34.7318 1.6
      vertex 83.5654 34.6478 0
      vertex 83.3176 34.7318 0
    endloop
  endfacet
  facet normal 0.195381 0.980727 -0
    outer loop
      vertex 83.3176 34.7318 0
      vertex 83.0611 34.7829 1.6
      vertex 83.3176 34.7318 1.6
    endloop
  endfacet
  facet normal 0.195381 0.980727 0
    outer loop
      vertex 83.0611 34.7829 1.6
      vertex 83.3176 34.7318 0
      vertex 83.0611 34.7829 0
    endloop
  endfacet
  facet normal 0.0653521 0.997862 -0
    outer loop
      vertex 83.0611 34.7829 0
      vertex 82.8 34.8 1.6
      vertex 83.0611 34.7829 1.6
    endloop
  endfacet
  facet normal 0.0653521 0.997862 0
    outer loop
      vertex 82.8 34.8 1.6
      vertex 83.0611 34.7829 0
      vertex 82.8 34.8 0
    endloop
  endfacet
  facet normal 0 1 -0
    outer loop
      vertex 82.8 34.8 0
      vertex 2 34.8 1.6
      vertex 82.8 34.8 1.6
    endloop
  endfacet
  facet normal 0 1 0
    outer loop
      vertex 2 34.8 1.6
      vertex 82.8 34.8 0
      vertex 2 34.8 0
    endloop
  endfacet
  facet normal -0.0653621 0.997862 0
    outer loop
      vertex 2 34.8 0
      vertex 1.73894 34.7829 1.6
      vertex 2 34.8 1.6
    endloop
  endfacet
  facet normal -0.0653621 0.997862 0
    outer loop
      vertex 1.73894 34.7829 1.6
      vertex 2 34.8 0
      vertex 1.73894 34.7829 0
    endloop
  endfacet
  facet normal -0.195322 0.980739 0
    outer loop
      vertex 1.73894 34.7829 0
      vertex 1.48236 34.7318 1.6
      vertex 1.73894 34.7829 1.6
    endloop
  endfacet
  facet normal -0.195322 0.980739 0
    outer loop
      vertex 1.48236 34.7318 1.6
      vertex 1.73894 34.7829 0
      vertex 1.48236 34.7318 0
    endloop
  endfacet
  facet normal -0.321109 0.947042 0
    outer loop
      vertex 1.48236 34.7318 0
      vertex 1.23462 34.6478 1.6
      vertex 1.48236 34.7318 1.6
    endloop
  endfacet
  facet normal -0.321109 0.947042 0
    outer loop
      vertex 1.23462 34.6478 1.6
      vertex 1.48236 34.7318 0
      vertex 1.23462 34.6478 0
    endloop
  endfacet
  facet normal -0.442591 0.896724 0
    outer loop
      vertex 1.23462 34.6478 0
      vertex 1 34.532 1.6
      vertex 1.23462 34.6478 1.6
    endloop
  endfacet
  facet normal -0.442591 0.896724 0
    outer loop
      vertex 1 34.532 1.6
      vertex 1.23462 34.6478 0
      vertex 1 34.532 0
    endloop
  endfacet
  facet normal -0.555443 0.831555 0
    outer loop
      vertex 1 34.532 0
      vertex 0.782471 34.3867 1.6
      vertex 1 34.532 1.6
    endloop
  endfacet
  facet normal -0.555443 0.831555 0
    outer loop
      vertex 0.782471 34.3867 1.6
      vertex 1 34.532 0
      vertex 0.782471 34.3867 0
    endloop
  endfacet
  facet normal -0.65937 0.751819 0
    outer loop
      vertex 0.782471 34.3867 0
      vertex 0.585785 34.2142 1.6
      vertex 0.782471 34.3867 1.6
    endloop
  endfacet
  facet normal -0.65937 0.751819 0
    outer loop
      vertex 0.585785 34.2142 1.6
      vertex 0.782471 34.3867 0
      vertex 0.585785 34.2142 0
    endloop
  endfacet
  facet normal -0.75184 0.659345 0
    outer loop
      vertex 0.413284 34.0175 0
      vertex 0.585785 34.2142 1.6
      vertex 0.585785 34.2142 0
    endloop
  endfacet
  facet normal -0.75184 0.659345 0
    outer loop
      vertex 0.585785 34.2142 1.6
      vertex 0.413284 34.0175 0
      vertex 0.413284 34.0175 1.6
    endloop
  endfacet
  facet normal -0.83145 0.5556 0
    outer loop
      vertex 0.267944 33.8 0
      vertex 0.413284 34.0175 1.6
      vertex 0.413284 34.0175 0
    endloop
  endfacet
  facet normal -0.83145 0.5556 0
    outer loop
      vertex 0.413284 34.0175 1.6
      vertex 0.267944 33.8 0
      vertex 0.267944 33.8 1.6
    endloop
  endfacet
  facet normal -0.89685 0.442335 0
    outer loop
      vertex 0.152237 33.5654 0
      vertex 0.267944 33.8 1.6
      vertex 0.267944 33.8 0
    endloop
  endfacet
  facet normal -0.89685 0.442335 0
    outer loop
      vertex 0.267944 33.8 1.6
      vertex 0.152237 33.5654 0
      vertex 0.152237 33.5654 1.6
    endloop
  endfacet
  facet normal -0.94696 0.321352 0
    outer loop
      vertex 0.0681458 33.3176 0
      vertex 0.152237 33.5654 1.6
      vertex 0.152237 33.5654 0
    endloop
  endfacet
  facet normal -0.94696 0.321352 0
    outer loop
      vertex 0.152237 33.5654 1.6
      vertex 0.0681458 33.3176 0
      vertex 0.0681458 33.3176 1.6
    endloop
  endfacet
  facet normal -0.980771 0.195163 0
    outer loop
      vertex 0.0171051 33.0611 0
      vertex 0.0681458 33.3176 1.6
      vertex 0.0681458 33.3176 0
    endloop
  endfacet
  facet normal -0.980771 0.195163 0
    outer loop
      vertex 0.0681458 33.3176 1.6
      vertex 0.0171051 33.0611 0
      vertex 0.0171051 33.0611 1.6
    endloop
  endfacet
  facet normal -0.997861 0.0653716 0
    outer loop
      vertex 0 32.8 0
      vertex 0.0171051 33.0611 1.6
      vertex 0.0171051 33.0611 0
    endloop
  endfacet
  facet normal -0.997861 0.0653716 0
    outer loop
      vertex 0.0171051 33.0611 1.6
      vertex 0 32.8 0
      vertex 0 32.8 1.6
    endloop
  endfacet
  facet normal -1 0 0
    outer loop
      vertex 0 23.4 0
      vertex 0 32.8 1.6
      vertex 0 32.8 0
    endloop
  endfacet
  facet normal -1 -0 0
    outer loop
      vertex 0 32.8 1.6
      vertex 0 23.4 0
      vertex 0 23.4 1.6
    endloop
  endfacet
  facet normal 0 -1 0
    outer loop
      vertex 0 23.4 0
      vertex 3.4 23.4 1.6
      vertex 0 23.4 1.6
    endloop
  endfacet
  facet normal 0 -1 0
    outer loop
      vertex 4 23.4 0
      vertex 3.4 23.4 1.6
      vertex 0 23.4 0
    endloop
  endfacet
  facet normal 0 -1 0
    outer loop
      vertex 3.4 23.4 1.6
      vertex 4 23.4 0
      vertex 4 23.4 1.6
    endloop
  endfacet
  facet normal 1 0 0
    outer loop
      vertex 4 27.8 1.6
      vertex 4 26.8 1.6
      vertex 4 27.8 1.55
    endloop
  endfacet
  facet normal 1 -0 0
    outer loop
      vertex 4 27.8 1.55
      vertex 4 30.8 0
      vertex 4 30.8 1.55
    endloop
  endfacet
  facet normal 1 0 0
    outer loop
      vertex 4 23.4 0
      vertex 4 27.8 1.55
      vertex 4 26.8 1.6
    endloop
  endfacet
  facet normal 1 0 0
    outer loop
      vertex 4 23.4 0
      vertex 4 26.8 1.6
      vertex 4 23.4 1.6
    endloop
  endfacet
  facet normal 1 0 0
    outer loop
      vertex 4 27.8 1.55
      vertex 4 23.4 0
      vertex 4 30.8 0
    endloop
  endfacet
  facet normal -1 0 0
    outer loop
      vertex 4 27.8 1.6
      vertex 4 31.8 3.8
      vertex 4 31.8 1.6
    endloop
  endfacet
  facet normal -1 -0 0
    outer loop
      vertex 4 31.8 3.8
      vertex 4 27.8 1.6
      vertex 4 27.8 3.8
    endloop
  endfacet
  facet normal 0.195163 -0.980771 0
    outer loop
      vertex 83.0611 0.0171051 0
      vertex 83.3176 0.0681458 1.6
      vertex 83.0611 0.0171051 1.6
    endloop
  endfacet
  facet normal 0.195163 -0.980771 0
    outer loop
      vertex 83.3176 0.0681458 1.6
      vertex 83.0611 0.0171051 0
      vertex 83.3176 0.0681458 0
    endloop
  endfacet
  facet normal 0.321352 -0.94696 0
    outer loop
      vertex 83.3176 0.0681458 0
      vertex 83.5654 0.152237 1.6
      vertex 83.3176 0.0681458 1.6
    endloop
  endfacet
  facet normal 0.321352 -0.94696 0
    outer loop
      vertex 83.5654 0.152237 1.6
      vertex 83.3176 0.0681458 0
      vertex 83.5654 0.152237 0
    endloop
  endfacet
  facet normal 0.442335 -0.89685 0
    outer loop
      vertex 83.5654 0.152237 0
      vertex 83.8 0.267944 1.6
      vertex 83.5654 0.152237 1.6
    endloop
  endfacet
  facet normal 0.442335 -0.89685 0
    outer loop
      vertex 83.8 0.267944 1.6
      vertex 83.5654 0.152237 0
      vertex 83.8 0.267944 0
    endloop
  endfacet
  facet normal 0.5556 -0.83145 0
    outer loop
      vertex 83.8 0.267944 0
      vertex 84.0175 0.413284 1.6
      vertex 83.8 0.267944 1.6
    endloop
  endfacet
  facet normal 0.5556 -0.83145 0
    outer loop
      vertex 84.0175 0.413284 1.6
      vertex 83.8 0.267944 0
      vertex 84.0175 0.413284 0
    endloop
  endfacet
  facet normal 0.659345 -0.75184 0
    outer loop
      vertex 84.0175 0.413284 0
      vertex 84.2142 0.585785 1.6
      vertex 84.0175 0.413284 1.6
    endloop
  endfacet
  facet normal 0.659345 -0.75184 0
    outer loop
      vertex 84.2142 0.585785 1.6
      vertex 84.0175 0.413284 0
      vertex 84.2142 0.585785 0
    endloop
  endfacet
  facet normal 0.751819 -0.65937 0
    outer loop
      vertex 84.2142 0.585785 1.6
      vertex 84.3867 0.782471 0
      vertex 84.3867 0.782471 1.6
    endloop
  endfacet
  facet normal 0.751819 -0.65937 0
    outer loop
      vertex 84.3867 0.782471 0
      vertex 84.2142 0.585785 1.6
      vertex 84.2142 0.585785 0
    endloop
  endfacet
  facet normal 0.831555 -0.555443 0
    outer loop
      vertex 84.3867 0.782471 1.6
      vertex 84.532 1 0
      vertex 84.532 1 1.6
    endloop
  endfacet
  facet normal 0.831555 -0.555443 0
    outer loop
      vertex 84.532 1 0
      vertex 84.3867 0.782471 1.6
      vertex 84.3867 0.782471 0
    endloop
  endfacet
  facet normal 0.896724 -0.442591 0
    outer loop
      vertex 84.532 1 1.6
      vertex 84.6478 1.23462 0
      vertex 84.6478 1.23462 1.6
    endloop
  endfacet
  facet normal 0.896724 -0.442591 0
    outer loop
      vertex 84.6478 1.23462 0
      vertex 84.532 1 1.6
      vertex 84.532 1 0
    endloop
  endfacet
  facet normal 0.947042 -0.321109 0
    outer loop
      vertex 84.6478 1.23462 1.6
      vertex 84.7318 1.48236 0
      vertex 84.7318 1.48236 1.6
    endloop
  endfacet
  facet normal 0.947042 -0.321109 0
    outer loop
      vertex 84.7318 1.48236 0
      vertex 84.6478 1.23462 1.6
      vertex 84.6478 1.23462 0
    endloop
  endfacet
  facet normal 0.980739 -0.195322 0
    outer loop
      vertex 84.7318 1.48236 1.6
      vertex 84.7829 1.73894 0
      vertex 84.7829 1.73894 1.6
    endloop
  endfacet
  facet normal 0.980739 -0.195322 0
    outer loop
      vertex 84.7829 1.73894 0
      vertex 84.7318 1.48236 1.6
      vertex 84.7318 1.48236 0
    endloop
  endfacet
  facet normal 0.997862 -0.0653621 0
    outer loop
      vertex 84.7829 1.73894 1.6
      vertex 84.8 2 0
      vertex 84.8 2 1.6
    endloop
  endfacet
  facet normal 0.997862 -0.0653621 0
    outer loop
      vertex 84.8 2 0
      vertex 84.7829 1.73894 1.6
      vertex 84.7829 1.73894 0
    endloop
  endfacet
  facet normal 1 -0 0
    outer loop
      vertex 84.8 2 1.6
      vertex 84.8 11.4 0
      vertex 84.8 11.4 1.6
    endloop
  endfacet
  facet normal 1 0 0
    outer loop
      vertex 84.8 11.4 0
      vertex 84.8 2 1.6
      vertex 84.8 2 0
    endloop
  endfacet
  facet normal 0 1 -0
    outer loop
      vertex 84.8 11.4 0
      vertex 80.8 11.4 1.6
      vertex 84.8 11.4 1.6
    endloop
  endfacet
  facet normal 0 1 0
    outer loop
      vertex 80.8 11.4 1.6
      vertex 84.8 11.4 0
      vertex 80.8 11.4 0
    endloop
  endfacet
  facet normal -1 0 0
    outer loop
      vertex 80.8 4 0
      vertex 80.8 5.37265 1.6
      vertex 80.8 5.37265 0
    endloop
  endfacet
  facet normal -1 -0 0
    outer loop
      vertex 80.8 5.37265 1.6
      vertex 80.8 4 0
      vertex 80.8 4 1.6
    endloop
  endfacet
  facet normal -1 0 0
    outer loop
      vertex 80.8 6.62735 0
      vertex 80.8 11.4 1.6
      vertex 80.8 11.4 0
    endloop
  endfacet
  facet normal -1 -0 0
    outer loop
      vertex 80.8 11.4 1.6
      vertex 80.8 6.62735 0
      vertex 80.8 6.62735 1.6
    endloop
  endfacet
  facet normal 0 1 -0
    outer loop
      vertex 80.8 4 0
      vertex 79.4273 4 1.6
      vertex 80.8 4 1.6
    endloop
  endfacet
  facet normal 0 1 0
    outer loop
      vertex 79.4273 4 1.6
      vertex 80.8 4 0
      vertex 79.4273 4 0
    endloop
  endfacet
  facet normal 0 1 0
    outer loop
      vertex 78.1727 4 1.6
      vertex 72.8 4 1.55
      vertex 72.8 4 1.6
    endloop
  endfacet
  facet normal 0 1 0
    outer loop
      vertex 72.8 4 1.55
      vertex 78.1727 4 0
      vertex 64.8 4 1.55
    endloop
  endfacet
  facet normal 0 1 -0
    outer loop
      vertex 78.1727 4 0
      vertex 72.8 4 1.55
      vertex 78.1727 4 1.6
    endloop
  endfacet
  facet normal 0 1 -0
    outer loop
      vertex 64.8 4 1.55
      vertex 51.4 4 1.6
      vertex 64.8 4 1.6
    endloop
  endfacet
  facet normal 0 1 0
    outer loop
      vertex 51.4 4 0
      vertex 64.8 4 1.55
      vertex 78.1727 4 0
    endloop
  endfacet
  facet normal 0 1 0
    outer loop
      vertex 64.8 4 1.55
      vertex 51.4 4 0
      vertex 51.4 4 1.6
    endloop
  endfacet
  facet normal -1 0 0
    outer loop
      vertex 51.4 0 0
      vertex 51.4 4 1.6
      vertex 51.4 4 0
    endloop
  endfacet
  facet normal -1 -0 0
    outer loop
      vertex 51.4 4 1.6
      vertex 51.4 0 0
      vertex 51.4 0 1.6
    endloop
  endfacet
  facet normal 0 -1 0
    outer loop
      vertex 51.4 0 0
      vertex 82.8 0 1.6
      vertex 51.4 0 1.6
    endloop
  endfacet
  facet normal 0 -1 -0
    outer loop
      vertex 82.8 0 1.6
      vertex 51.4 0 0
      vertex 82.8 0 0
    endloop
  endfacet
  facet normal 0.0653716 -0.997861 0
    outer loop
      vertex 82.8 0 0
      vertex 83.0611 0.0171051 1.6
      vertex 82.8 0 1.6
    endloop
  endfacet
  facet normal 0.0653716 -0.997861 0
    outer loop
      vertex 83.0611 0.0171051 1.6
      vertex 82.8 0 0
      vertex 83.0611 0.0171051 0
    endloop
  endfacet
  facet normal 0 1 0
    outer loop
      vertex 33.4 4 1.6
      vertex 20 4 1.55
      vertex 20 4 1.6
    endloop
  endfacet
  facet normal 0 1 0
    outer loop
      vertex 6.62731 4 0
      vertex 20 4 1.55
      vertex 33.4 4 0
    endloop
  endfacet
  facet normal 0 1 -0
    outer loop
      vertex 33.4 4 0
      vertex 20 4 1.55
      vertex 33.4 4 1.6
    endloop
  endfacet
  facet normal 0 1 -0
    outer loop
      vertex 12 4 1.55
      vertex 6.62731 4 1.6
      vertex 12 4 1.6
    endloop
  endfacet
  facet normal 0 1 0
    outer loop
      vertex 20 4 1.55
      vertex 6.62731 4 0
      vertex 12 4 1.55
    endloop
  endfacet
  facet normal 0 1 0
    outer loop
      vertex 12 4 1.55
      vertex 6.62731 4 0
      vertex 6.62731 4 1.6
    endloop
  endfacet
  facet normal 0 1 -0
    outer loop
      vertex 5.37268 4 0
      vertex 4 4 1.6
      vertex 5.37268 4 1.6
    endloop
  endfacet
  facet normal 0 1 0
    outer loop
      vertex 4 4 1.6
      vertex 5.37268 4 0
      vertex 4 4 0
    endloop
  endfacet
  facet normal 1 -0 0
    outer loop
      vertex 4 4 1.6
      vertex 4 5.37268 0
      vertex 4 5.37268 1.6
    endloop
  endfacet
  facet normal 1 0 0
    outer loop
      vertex 4 5.37268 0
      vertex 4 4 1.6
      vertex 4 4 0
    endloop
  endfacet
  facet normal 1 -0 0
    outer loop
      vertex 4 8 1.6
      vertex 4 11.4 0
      vertex 4 11.4 1.6
    endloop
  endfacet
  facet normal 1 0 0
    outer loop
      vertex 4 6.62731 0
      vertex 4 8 1.6
      vertex 4 6.62731 1.6
    endloop
  endfacet
  facet normal 1 0 0
    outer loop
      vertex 4 8 1.6
      vertex 4 6.62731 0
      vertex 4 11.4 0
    endloop
  endfacet
  facet normal 0 1 -0
    outer loop
      vertex 4 11.4 0
      vertex 3.4 11.4 1.6
      vertex 4 11.4 1.6
    endloop
  endfacet
  facet normal 0 1 0
    outer loop
      vertex 0 11.4 0
      vertex 3.4 11.4 1.6
      vertex 4 11.4 0
    endloop
  endfacet
  facet normal 0 1 0
    outer loop
      vertex 3.4 11.4 1.6
      vertex 0 11.4 0
      vertex 0 11.4 1.6
    endloop
  endfacet
  facet normal -1 0 0
    outer loop
      vertex 0 2 0
      vertex 0 11.4 1.6
      vertex 0 11.4 0
    endloop
  endfacet
  facet normal -1 -0 0
    outer loop
      vertex 0 11.4 1.6
      vertex 0 2 0
      vertex 0 2 1.6
    endloop
  endfacet
  facet normal -0.99786 -0.0653815 0
    outer loop
      vertex 0.0171051 1.73894 0
      vertex 0 2 1.6
      vertex 0 2 0
    endloop
  endfacet
  facet normal -0.99786 -0.0653815 0
    outer loop
      vertex 0 2 1.6
      vertex 0.0171051 1.73894 0
      vertex 0.0171051 1.73894 1.6
    endloop
  endfacet
  facet normal -0.980783 -0.195104 0
    outer loop
      vertex 0.0681458 1.48236 0
      vertex 0.0171051 1.73894 1.6
      vertex 0.0171051 1.73894 0
    endloop
  endfacet
  facet normal -0.980783 -0.195104 0
    outer loop
      vertex 0.0171051 1.73894 1.6
      vertex 0.0681458 1.48236 0
      vertex 0.0681458 1.48236 1.6
    endloop
  endfacet
  facet normal -0.946936 -0.321422 0
    outer loop
      vertex 0.152237 1.23462 0
      vertex 0.0681458 1.48236 1.6
      vertex 0.0681458 1.48236 0
    endloop
  endfacet
  facet normal -0.946936 -0.321422 0
    outer loop
      vertex 0.0681458 1.48236 1.6
      vertex 0.152237 1.23462 0
      vertex 0.152237 1.23462 1.6
    endloop
  endfacet
  facet normal -0.896865 -0.442305 0
    outer loop
      vertex 0.267944 1 0
      vertex 0.152237 1.23462 1.6
      vertex 0.152237 1.23462 0
    endloop
  endfacet
  facet normal -0.896865 -0.442305 0
    outer loop
      vertex 0.152237 1.23462 1.6
      vertex 0.267944 1 0
      vertex 0.267944 1 1.6
    endloop
  endfacet
  facet normal -0.831484 -0.555548 0
    outer loop
      vertex 0.413284 0.782471 0
      vertex 0.267944 1 1.6
      vertex 0.267944 1 0
    endloop
  endfacet
  facet normal -0.831484 -0.555548 0
    outer loop
      vertex 0.267944 1 1.6
      vertex 0.413284 0.782471 0
      vertex 0.413284 0.782471 1.6
    endloop
  endfacet
  facet normal -0.751817 -0.659372 0
    outer loop
      vertex 0.585785 0.585785 0
      vertex 0.413284 0.782471 1.6
      vertex 0.413284 0.782471 0
    endloop
  endfacet
  facet normal -0.751817 -0.659372 0
    outer loop
      vertex 0.413284 0.782471 1.6
      vertex 0.585785 0.585785 0
      vertex 0.585785 0.585785 1.6
    endloop
  endfacet
  facet normal -0.659372 -0.751817 0
    outer loop
      vertex 0.585785 0.585785 0
      vertex 0.782471 0.413284 1.6
      vertex 0.585785 0.585785 1.6
    endloop
  endfacet
  facet normal -0.659372 -0.751817 -0
    outer loop
      vertex 0.782471 0.413284 1.6
      vertex 0.585785 0.585785 0
      vertex 0.782471 0.413284 0
    endloop
  endfacet
  facet normal -0.555548 -0.831484 0
    outer loop
      vertex 0.782471 0.413284 0
      vertex 1 0.267944 1.6
      vertex 0.782471 0.413284 1.6
    endloop
  endfacet
  facet normal -0.555548 -0.831484 -0
    outer loop
      vertex 1 0.267944 1.6
      vertex 0.782471 0.413284 0
      vertex 1 0.267944 0
    endloop
  endfacet
  facet normal -0.442305 -0.896865 0
    outer loop
      vertex 1 0.267944 0
      vertex 1.23462 0.152237 1.6
      vertex 1 0.267944 1.6
    endloop
  endfacet
  facet normal -0.442305 -0.896865 -0
    outer loop
      vertex 1.23462 0.152237 1.6
      vertex 1 0.267944 0
      vertex 1.23462 0.152237 0
    endloop
  endfacet
  facet normal -0.321422 -0.946936 0
    outer loop
      vertex 1.23462 0.152237 0
      vertex 1.48236 0.0681458 1.6
      vertex 1.23462 0.152237 1.6
    endloop
  endfacet
  facet normal -0.321422 -0.946936 -0
    outer loop
      vertex 1.48236 0.0681458 1.6
      vertex 1.23462 0.152237 0
      vertex 1.48236 0.0681458 0
    endloop
  endfacet
  facet normal -0.195104 -0.980783 0
    outer loop
      vertex 1.48236 0.0681458 0
      vertex 1.73894 0.0171051 1.6
      vertex 1.48236 0.0681458 1.6
    endloop
  endfacet
  facet normal -0.195104 -0.980783 -0
    outer loop
      vertex 1.73894 0.0171051 1.6
      vertex 1.48236 0.0681458 0
      vertex 1.73894 0.0171051 0
    endloop
  endfacet
  facet normal -0.0653815 -0.99786 0
    outer loop
      vertex 1.73894 0.0171051 0
      vertex 2 0 1.6
      vertex 1.73894 0.0171051 1.6
    endloop
  endfacet
  facet normal -0.0653815 -0.99786 -0
    outer loop
      vertex 2 0 1.6
      vertex 1.73894 0.0171051 0
      vertex 2 0 0
    endloop
  endfacet
  facet normal 0 -1 0
    outer loop
      vertex 2 0 0
      vertex 33.4 0 1.6
      vertex 2 0 1.6
    endloop
  endfacet
  facet normal 0 -1 -0
    outer loop
      vertex 33.4 0 1.6
      vertex 2 0 0
      vertex 33.4 0 0
    endloop
  endfacet
  facet normal 1 -0 0
    outer loop
      vertex 33.4 0 1.6
      vertex 33.4 4 0
      vertex 33.4 4 1.6
    endloop
  endfacet
  facet normal 1 0 0
    outer loop
      vertex 33.4 4 0
      vertex 33.4 0 1.6
      vertex 33.4 0 0
    endloop
  endfacet
  facet normal 0 0 -1
    outer loop
      vertex 20 4 1.55
      vertex 13 7 1.55
      vertex 20 7 1.55
    endloop
  endfacet
  facet normal 0 0 -1
    outer loop
      vertex 12 4 1.55
      vertex 13 7 1.55
      vertex 20 4 1.55
    endloop
  endfacet
  facet normal 0 0 -1
    outer loop
      vertex 12 8 1.55
      vertex 13 7 1.55
      vertex 12 4 1.55
    endloop
  endfacet
  facet normal 0 0 -1
    outer loop
      vertex 13 7 1.55
      vertex 12 8 1.55
      vertex 13 8 1.55
    endloop
  endfacet
  facet normal 0 0 1
    outer loop
      vertex 13 8 3.8
      vertex 12 8 3.8
      vertex 13 7 3.8
    endloop
  endfacet
  facet normal -0 0 1
    outer loop
      vertex 13 7 3.8
      vertex 20 3 3.8
      vertex 20 7 3.8
    endloop
  endfacet
  facet normal 0 0 1
    outer loop
      vertex 13 7 3.8
      vertex 12 3 3.8
      vertex 20 3 3.8
    endloop
  endfacet
  facet normal 0 0 1
    outer loop
      vertex 12 3 3.8
      vertex 13 7 3.8
      vertex 12 8 3.8
    endloop
  endfacet
  facet normal 0 1 -0
    outer loop
      vertex 20 7 1.55
      vertex 13 7 3.8
      vertex 20 7 3.8
    endloop
  endfacet
  facet normal 0 1 0
    outer loop
      vertex 13 7 3.8
      vertex 20 7 1.55
      vertex 13 7 1.55
    endloop
  endfacet
  facet normal 1 -0 0
    outer loop
      vertex 13 7 3.8
      vertex 13 8 1.55
      vertex 13 8 3.8
    endloop
  endfacet
  facet normal 1 0 0
    outer loop
      vertex 13 8 1.55
      vertex 13 7 3.8
      vertex 13 7 1.55
    endloop
  endfacet
  facet normal 0 1 -0
    outer loop
      vertex 13 8 1.55
      vertex 12 8 3.8
      vertex 13 8 3.8
    endloop
  endfacet
  facet normal 0 1 0
    outer loop
      vertex 12 8 3.8
      vertex 13 8 1.55
      vertex 12 8 1.55
    endloop
  endfacet
  facet normal -1 0 0
    outer loop
      vertex 12 4 1.6
      vertex 12 8 1.55
      vertex 12 4 1.55
    endloop
  endfacet
  facet normal -1 0 0
    outer loop
      vertex 12 8 1.55
      vertex 12 4 1.6
      vertex 12 8 3.8
    endloop
  endfacet
  facet normal -1 0 0
    outer loop
      vertex 12 3 3.8
      vertex 12 4 1.6
      vertex 12 3 1.6
    endloop
  endfacet
  facet normal -1 0 0
    outer loop
      vertex 12 4 1.6
      vertex 12 3 3.8
      vertex 12 8 3.8
    endloop
  endfacet
  facet normal 0 -1 0
    outer loop
      vertex 12 3 1.6
      vertex 20 3 3.8
      vertex 12 3 3.8
    endloop
  endfacet
  facet normal 0 -1 -0
    outer loop
      vertex 20 3 3.8
      vertex 12 3 1.6
      vertex 20 3 1.6
    endloop
  endfacet
  facet normal 1 0 0
    outer loop
      vertex 20 7 3.8
      vertex 20 4 1.6
      vertex 20 7 1.55
    endloop
  endfacet
  facet normal 1 -0 0
    outer loop
      vertex 20 3 3.8
      vertex 20 4 1.6
      vertex 20 7 3.8
    endloop
  endfacet
  facet normal 1 0 0
    outer loop
      vertex 20 4 1.6
      vertex 20 3 3.8
      vertex 20 3 1.6
    endloop
  endfacet
  facet normal 1 0 0
    outer loop
      vertex 20 7 1.55
      vertex 20 4 1.6
      vertex 20 4 1.55
    endloop
  endfacet
  facet normal 0 0 -1
    outer loop
      vertex 72.8 4 1.55
      vertex 65.8 7 1.55
      vertex 72.8 7 1.55
    endloop
  endfacet
  facet normal 0 0 -1
    outer loop
      vertex 64.8 4 1.55
      vertex 65.8 7 1.55
      vertex 72.8 4 1.55
    endloop
  endfacet
  facet normal 0 0 -1
    outer loop
      vertex 64.8 8 1.55
      vertex 65.8 7 1.55
      vertex 64.8 4 1.55
    endloop
  endfacet
  facet normal 0 0 -1
    outer loop
      vertex 65.8 7 1.55
      vertex 64.8 8 1.55
      vertex 65.8 8 1.55
    endloop
  endfacet
  facet normal 0 0 1
    outer loop
      vertex 65.8 8 3.8
      vertex 64.8 8 3.8
      vertex 65.8 7 3.8
    endloop
  endfacet
  facet normal -0 0 1
    outer loop
      vertex 65.8 7 3.8
      vertex 72.8 3 3.8
      vertex 72.8 7 3.8
    endloop
  endfacet
  facet normal 0 0 1
    outer loop
      vertex 65.8 7 3.8
      vertex 64.8 3 3.8
      vertex 72.8 3 3.8
    endloop
  endfacet
  facet normal 0 0 1
    outer loop
      vertex 64.8 3 3.8
      vertex 65.8 7 3.8
      vertex 64.8 8 3.8
    endloop
  endfacet
  facet normal 0 1 -0
    outer loop
      vertex 72.8 7 1.55
      vertex 65.8 7 3.8
      vertex 72.8 7 3.8
    endloop
  endfacet
  facet normal 0 1 0
    outer loop
      vertex 65.8 7 3.8
      vertex 72.8 7 1.55
      vertex 65.8 7 1.55
    endloop
  endfacet
  facet normal 1 -0 0
    outer loop
      vertex 65.8 7 3.8
      vertex 65.8 8 1.55
      vertex 65.8 8 3.8
    endloop
  endfacet
  facet normal 1 0 0
    outer loop
      vertex 65.8 8 1.55
      vertex 65.8 7 3.8
      vertex 65.8 7 1.55
    endloop
  endfacet
  facet normal 0 1 -0
    outer loop
      vertex 65.8 8 1.55
      vertex 64.8 8 3.8
      vertex 65.8 8 3.8
    endloop
  endfacet
  facet normal 0 1 0
    outer loop
      vertex 64.8 8 3.8
      vertex 65.8 8 1.55
      vertex 64.8 8 1.55
    endloop
  endfacet
  facet normal -1 0 0
    outer loop
      vertex 64.8 4 1.6
      vertex 64.8 8 1.55
      vertex 64.8 4 1.55
    endloop
  endfacet
  facet normal -1 0 0
    outer loop
      vertex 64.8 8 1.55
      vertex 64.8 4 1.6
      vertex 64.8 8 3.8
    endloop
  endfacet
  facet normal -1 0 0
    outer loop
      vertex 64.8 3 3.8
      vertex 64.8 4 1.6
      vertex 64.8 3 1.6
    endloop
  endfacet
  facet normal -1 0 0
    outer loop
      vertex 64.8 4 1.6
      vertex 64.8 3 3.8
      vertex 64.8 8 3.8
    endloop
  endfacet
  facet normal 0 -1 0
    outer loop
      vertex 64.8 3 1.6
      vertex 72.8 3 3.8
      vertex 64.8 3 3.8
    endloop
  endfacet
  facet normal 0 -1 -0
    outer loop
      vertex 72.8 3 3.8
      vertex 64.8 3 1.6
      vertex 72.8 3 1.6
    endloop
  endfacet
  facet normal 1 0 0
    outer loop
      vertex 72.8 7 3.8
      vertex 72.8 4 1.6
      vertex 72.8 7 1.55
    endloop
  endfacet
  facet normal 1 -0 0
    outer loop
      vertex 72.8 3 3.8
      vertex 72.8 4 1.6
      vertex 72.8 7 3.8
    endloop
  endfacet
  facet normal 1 0 0
    outer loop
      vertex 72.8 4 1.6
      vertex 72.8 3 3.8
      vertex 72.8 3 1.6
    endloop
  endfacet
  facet normal 1 0 0
    outer loop
      vertex 72.8 7 1.55
      vertex 72.8 4 1.6
      vertex 72.8 4 1.55
    endloop
  endfacet
  facet normal 0 0 -1
    outer loop
      vertex 11 27.8 1.55
      vertex 12 26.8 1.55
      vertex 11 26.8 1.55
    endloop
  endfacet
  facet normal 0 0 -1
    outer loop
      vertex 12 26.8 1.55
      vertex 11 27.8 1.55
      vertex 12 30.8 1.55
    endloop
  endfacet
  facet normal 0 0 -1
    outer loop
      vertex 4 30.8 1.55
      vertex 11 27.8 1.55
      vertex 4 27.8 1.55
    endloop
  endfacet
  facet normal 0 0 -1
    outer loop
      vertex 11 27.8 1.55
      vertex 4 30.8 1.55
      vertex 12 30.8 1.55
    endloop
  endfacet
  facet normal -0 0 1
    outer loop
      vertex 4 31.8 3.8
      vertex 12 31.4 3.8
      vertex 12 31.8 3.8
    endloop
  endfacet
  facet normal 0 0 1
    outer loop
      vertex 12 31.4 3.8
      vertex 4 31.8 3.8
      vertex 12 30.6 3.8
    endloop
  endfacet
  facet normal 0 0 1
    outer loop
      vertex 12 30.6 3.8
      vertex 11 27.8 3.8
      vertex 12 26.8 3.8
    endloop
  endfacet
  facet normal 0 0 1
    outer loop
      vertex 12 30.6 3.8
      vertex 4 31.8 3.8
      vertex 11 27.8 3.8
    endloop
  endfacet
  facet normal 0 0 1
    outer loop
      vertex 11 27.8 3.8
      vertex 4 31.8 3.8
      vertex 4 27.8 3.8
    endloop
  endfacet
  facet normal -0 0 1
    outer loop
      vertex 12 31.4 3.8
      vertex 18 30.6 3.8
      vertex 18 31.4 3.8
    endloop
  endfacet
  facet normal 0 0 1
    outer loop
      vertex 18 30.6 3.8
      vertex 12 31.4 3.8
      vertex 12 30.6 3.8
    endloop
  endfacet
  facet normal 0 0 1
    outer loop
      vertex 12 26.8 3.8
      vertex 11 27.8 3.8
      vertex 11 26.8 3.8
    endloop
  endfacet
  facet normal 0 -1 0
    outer loop
      vertex 4 27.8 1.6
      vertex 11 27.8 3.8
      vertex 4 27.8 3.8
    endloop
  endfacet
  facet normal 0 -1 0
    outer loop
      vertex 11 27.8 1.55
      vertex 4 27.8 1.6
      vertex 4 27.8 1.55
    endloop
  endfacet
  facet normal 0 -1 0
    outer loop
      vertex 4 27.8 1.6
      vertex 11 27.8 1.55
      vertex 11 27.8 3.8
    endloop
  endfacet
  facet normal -1 0 0
    outer loop
      vertex 11 26.8 1.55
      vertex 11 27.8 3.8
      vertex 11 27.8 1.55
    endloop
  endfacet
  facet normal -1 -0 0
    outer loop
      vertex 11 27.8 3.8
      vertex 11 26.8 1.55
      vertex 11 26.8 3.8
    endloop
  endfacet
  facet normal 0 -1 0
    outer loop
      vertex 11 26.8 1.55
      vertex 12 26.8 3.8
      vertex 11 26.8 3.8
    endloop
  endfacet
  facet normal 0 -1 -0
    outer loop
      vertex 12 26.8 3.8
      vertex 11 26.8 1.55
      vertex 12 26.8 1.55
    endloop
  endfacet
  facet normal 1 0 0
    outer loop
      vertex 12 30.6 3.8
      vertex 12 26.8 3.8
      vertex 12 30.6 1.6
    endloop
  endfacet
  facet normal 1 -0 0
    outer loop
      vertex 12 30.6 1.6
      vertex 12 30.8 1.55
      vertex 12 30.8 1.6
    endloop
  endfacet
  facet normal 1 0 0
    outer loop
      vertex 12 30.6 1.6
      vertex 12 26.8 1.55
      vertex 12 30.8 1.55
    endloop
  endfacet
  facet normal 1 0 0
    outer loop
      vertex 12 26.8 1.55
      vertex 12 30.6 1.6
      vertex 12 26.8 3.8
    endloop
  endfacet
  facet normal 1 -0 0
    outer loop
      vertex 12 31.4 3.8
      vertex 12 31.8 1.6
      vertex 12 31.8 3.8
    endloop
  endfacet
  facet normal 1 0 0
    outer loop
      vertex 12 31.8 1.6
      vertex 12 31.4 3.8
      vertex 12 31.4 1.6
    endloop
  endfacet
  facet normal 0 1 -0
    outer loop
      vertex 12 31.8 1.6
      vertex 4 31.8 3.8
      vertex 12 31.8 3.8
    endloop
  endfacet
  facet normal 0 1 0
    outer loop
      vertex 4 31.8 3.8
      vertex 12 31.8 1.6
      vertex 4 31.8 1.6
    endloop
  endfacet
  facet normal 0 0 -1
    outer loop
      vertex 63.8 27.8 1.55
      vertex 64.8 26.8 1.55
      vertex 63.8 26.8 1.55
    endloop
  endfacet
  facet normal 0 0 -1
    outer loop
      vertex 64.8 26.8 1.55
      vertex 63.8 27.8 1.55
      vertex 64.8 30.8 1.55
    endloop
  endfacet
  facet normal 0 0 -1
    outer loop
      vertex 56.8 30.8 1.55
      vertex 63.8 27.8 1.55
      vertex 56.8 27.8 1.55
    endloop
  endfacet
  facet normal 0 0 -1
    outer loop
      vertex 63.8 27.8 1.55
      vertex 56.8 30.8 1.55
      vertex 64.8 30.8 1.55
    endloop
  endfacet
  facet normal 0 0 1
    outer loop
      vertex 64.8 31.8 3.8
      vertex 63.8 27.8 3.8
      vertex 64.8 26.8 3.8
    endloop
  endfacet
  facet normal -0 0 1
    outer loop
      vertex 56.8 31.8 3.8
      vertex 63.8 27.8 3.8
      vertex 64.8 31.8 3.8
    endloop
  endfacet
  facet normal 0 0 1
    outer loop
      vertex 63.8 27.8 3.8
      vertex 56.8 31.8 3.8
      vertex 56.8 27.8 3.8
    endloop
  endfacet
  facet normal 0 0 1
    outer loop
      vertex 64.8 26.8 3.8
      vertex 63.8 27.8 3.8
      vertex 63.8 26.8 3.8
    endloop
  endfacet
  facet normal 0 -1 0
    outer loop
      vertex 56.8 27.8 1.55
      vertex 63.8 27.8 3.8
      vertex 56.8 27.8 3.8
    endloop
  endfacet
  facet normal 0 -1 -0
    outer loop
      vertex 63.8 27.8 3.8
      vertex 56.8 27.8 1.55
      vertex 63.8 27.8 1.55
    endloop
  endfacet
  facet normal -1 0 0
    outer loop
      vertex 63.8 26.8 1.55
      vertex 63.8 27.8 3.8
      vertex 63.8 27.8 1.55
    endloop
  endfacet
  facet normal -1 -0 0
    outer loop
      vertex 63.8 27.8 3.8
      vertex 63.8 26.8 1.55
      vertex 63.8 26.8 3.8
    endloop
  endfacet
  facet normal 0 -1 0
    outer loop
      vertex 63.8 26.8 1.55
      vertex 64.8 26.8 3.8
      vertex 63.8 26.8 3.8
    endloop
  endfacet
  facet normal 0 -1 -0
    outer loop
      vertex 64.8 26.8 3.8
      vertex 63.8 26.8 1.55
      vertex 64.8 26.8 1.55
    endloop
  endfacet
  facet normal 1 0 0
    outer loop
      vertex 64.8 31.8 3.8
      vertex 64.8 30.8 1.6
      vertex 64.8 31.8 1.6
    endloop
  endfacet
  facet normal 1 -0 0
    outer loop
      vertex 64.8 26.8 3.8
      vertex 64.8 30.8 1.6
      vertex 64.8 31.8 3.8
    endloop
  endfacet
  facet normal 1 0 0
    outer loop
      vertex 64.8 26.8 1.55
      vertex 64.8 30.8 1.6
      vertex 64.8 26.8 3.8
    endloop
  endfacet
  facet normal 1 0 0
    outer loop
      vertex 64.8 30.8 1.6
      vertex 64.8 26.8 1.55
      vertex 64.8 30.8 1.55
    endloop
  endfacet
  facet normal 0 1 -0
    outer loop
      vertex 64.8 31.8 1.6
      vertex 56.8 31.8 3.8
      vertex 64.8 31.8 3.8
    endloop
  endfacet
  facet normal 0 1 0
    outer loop
      vertex 56.8 31.8 3.8
      vertex 64.8 31.8 1.6
      vertex 56.8 31.8 1.6
    endloop
  endfacet
  facet normal -1 0 0
    outer loop
      vertex 56.8 30.8 1.55
      vertex 56.8 27.8 1.55
      vertex 56.8 30.8 1.6
    endloop
  endfacet
  facet normal -1 0 0
    outer loop
      vertex 56.8 30.8 1.6
      vertex 56.8 31.8 3.8
      vertex 56.8 31.8 1.6
    endloop
  endfacet
  facet normal -1 0 0
    outer loop
      vertex 56.8 27.8 3.8
      vertex 56.8 30.8 1.6
      vertex 56.8 27.8 1.55
    endloop
  endfacet
  facet normal -1 0 0
    outer loop
      vertex 56.8 30.8 1.6
      vertex 56.8 27.8 3.8
      vertex 56.8 31.8 3.8
    endloop
  endfacet
  facet normal 1 -0 0
    outer loop
      vertex 4.2 8 3.8
      vertex 4.2 15 1.6
      vertex 4.2 15 3.8
    endloop
  endfacet
  facet normal 1 0 0
    outer loop
      vertex 4.2 15 1.6
      vertex 4.2 8 3.8
      vertex 4.2 8 1.6
    endloop
  endfacet
  facet normal -0 0 1
    outer loop
      vertex 3.4 15 3.8
      vertex 4.2 8 3.8
      vertex 4.2 15 3.8
    endloop
  endfacet
  facet normal 0 0 1
    outer loop
      vertex 4.2 8 3.8
      vertex 3.4 15 3.8
      vertex 3.4 8 3.8
    endloop
  endfacet
  facet normal -1 0 0
    outer loop
      vertex 3.4 11.4 1.6
      vertex 3.4 15 3.8
      vertex 3.4 15 1.6
    endloop
  endfacet
  facet normal -1 0 0
    outer loop
      vertex 3.4 8 3.8
      vertex 3.4 11.4 1.6
      vertex 3.4 8 1.6
    endloop
  endfacet
  facet normal -1 0 0
    outer loop
      vertex 3.4 11.4 1.6
      vertex 3.4 8 3.8
      vertex 3.4 15 3.8
    endloop
  endfacet
  facet normal 0 1 -0
    outer loop
      vertex 4.2 15 1.6
      vertex 3.4 15 3.8
      vertex 4.2 15 3.8
    endloop
  endfacet
  facet normal 0 1 0
    outer loop
      vertex 3.4 15 3.8
      vertex 4.2 15 1.6
      vertex 3.4 15 1.6
    endloop
  endfacet
  facet normal 0 -1 0
    outer loop
      vertex 4 8 1.6
      vertex 3.4 8 3.8
      vertex 3.4 8 1.6
    endloop
  endfacet
  facet normal 0 -1 0
    outer loop
      vertex 3.4 8 3.8
      vertex 4 8 1.6
      vertex 4.2 8 3.8
    endloop
  endfacet
  facet normal 0 -1 -0
    outer loop
      vertex 4.2 8 3.8
      vertex 4 8 1.6
      vertex 4.2 8 1.6
    endloop
  endfacet
  facet normal 1 -0 0
    outer loop
      vertex 4.2 19.8 3.8
      vertex 4.2 26.8 1.6
      vertex 4.2 26.8 3.8
    endloop
  endfacet
  facet normal 1 0 0
    outer loop
      vertex 4.2 26.8 1.6
      vertex 4.2 19.8 3.8
      vertex 4.2 19.8 1.6
    endloop
  endfacet
  facet normal -0 0 1
    outer loop
      vertex 3.4 26.8 3.8
      vertex 4.2 19.8 3.8
      vertex 4.2 26.8 3.8
    endloop
  endfacet
  facet normal 0 0 1
    outer loop
      vertex 4.2 19.8 3.8
      vertex 3.4 26.8 3.8
      vertex 3.4 19.8 3.8
    endloop
  endfacet
  facet normal -1 0 0
    outer loop
      vertex 3.4 23.4 1.6
      vertex 3.4 26.8 3.8
      vertex 3.4 26.8 1.6
    endloop
  endfacet
  facet normal -1 0 0
    outer loop
      vertex 3.4 19.8 3.8
      vertex 3.4 23.4 1.6
      vertex 3.4 19.8 1.6
    endloop
  endfacet
  facet normal -1 0 0
    outer loop
      vertex 3.4 23.4 1.6
      vertex 3.4 19.8 3.8
      vertex 3.4 26.8 3.8
    endloop
  endfacet
  facet normal 0 1 0
    outer loop
      vertex 4 26.8 1.6
      vertex 4.2 26.8 3.8
      vertex 4.2 26.8 1.6
    endloop
  endfacet
  facet normal 0 1 0
    outer loop
      vertex 4.2 26.8 3.8
      vertex 4 26.8 1.6
      vertex 3.4 26.8 3.8
    endloop
  endfacet
  facet normal 0 1 0
    outer loop
      vertex 3.4 26.8 3.8
      vertex 4 26.8 1.6
      vertex 3.4 26.8 1.6
    endloop
  endfacet
  facet normal 0 -1 0
    outer loop
      vertex 3.4 19.8 1.6
      vertex 4.2 19.8 3.8
      vertex 3.4 19.8 3.8
    endloop
  endfacet
  facet normal 0 -1 -0
    outer loop
      vertex 4.2 19.8 3.8
      vertex 3.4 19.8 1.6
      vertex 4.2 19.8 1.6
    endloop
  endfacet
  facet normal 1 0 0
    outer loop
      vertex 18 31.4 3.8
      vertex 18 30.8 1.6
      vertex 18 31.4 1.6
    endloop
  endfacet
  facet normal 1 -0 0
    outer loop
      vertex 18 30.6 3.8
      vertex 18 30.8 1.6
      vertex 18 31.4 3.8
    endloop
  endfacet
  facet normal 1 0 0
    outer loop
      vertex 18 30.8 1.6
      vertex 18 30.6 3.8
      vertex 18 30.6 1.6
    endloop
  endfacet
  facet normal 0 1 -0
    outer loop
      vertex 18 31.4 1.6
      vertex 12 31.4 3.8
      vertex 18 31.4 3.8
    endloop
  endfacet
  facet normal 0 1 0
    outer loop
      vertex 12 31.4 3.8
      vertex 18 31.4 1.6
      vertex 12 31.4 1.6
    endloop
  endfacet
  facet normal 0 -1 0
    outer loop
      vertex 12 30.6 1.6
      vertex 18 30.6 3.8
      vertex 12 30.6 3.8
    endloop
  endfacet
  facet normal 0 -1 -0
    outer loop
      vertex 18 30.6 3.8
      vertex 12 30.6 1.6
      vertex 18 30.6 1.6
    endloop
  endfacet
  facet normal 1 0 0
    outer loop
      vertex 76.8 31.4 3.8
      vertex 76.8 30.8 1.6
      vertex 76.8 31.4 1.6
    endloop
  endfacet
  facet normal 1 -0 0
    outer loop
      vertex 76.8 30.6 3.8
      vertex 76.8 30.8 1.6
      vertex 76.8 31.4 3.8
    endloop
  endfacet
  facet normal 1 0 0
    outer loop
      vertex 76.8 30.8 1.6
      vertex 76.8 30.6 3.8
      vertex 76.8 30.6 1.6
    endloop
  endfacet
  facet normal -0 0 1
    outer loop
      vertex 66.8 31.4 3.8
      vertex 76.8 30.6 3.8
      vertex 76.8 31.4 3.8
    endloop
  endfacet
  facet normal 0 0 1
    outer loop
      vertex 76.8 30.6 3.8
      vertex 66.8 31.4 3.8
      vertex 66.8 30.6 3.8
    endloop
  endfacet
  facet normal -1 0 0
    outer loop
      vertex 66.8 30.8 1.6
      vertex 66.8 31.4 3.8
      vertex 66.8 31.4 1.6
    endloop
  endfacet
  facet normal -1 0 0
    outer loop
      vertex 66.8 30.6 3.8
      vertex 66.8 30.8 1.6
      vertex 66.8 30.6 1.6
    endloop
  endfacet
  facet normal -1 0 0
    outer loop
      vertex 66.8 30.8 1.6
      vertex 66.8 30.6 3.8
      vertex 66.8 31.4 3.8
    endloop
  endfacet
  facet normal 0 1 -0
    outer loop
      vertex 76.8 31.4 1.6
      vertex 66.8 31.4 3.8
      vertex 76.8 31.4 3.8
    endloop
  endfacet
  facet normal 0 1 0
    outer loop
      vertex 66.8 31.4 3.8
      vertex 76.8 31.4 1.6
      vertex 66.8 31.4 1.6
    endloop
  endfacet
  facet normal 0 -1 0
    outer loop
      vertex 66.8 30.6 1.6
      vertex 76.8 30.6 3.8
      vertex 66.8 30.6 3.8
    endloop
  endfacet
  facet normal 0 -1 -0
    outer loop
      vertex 76.8 30.6 3.8
      vertex 66.8 30.6 1.6
      vertex 76.8 30.6 1.6
    endloop
  endfacet
  facet normal 0.946952 0.321376 0
    outer loop
      vertex 4 5.37268 1.6
      vertex 3.97156 5.45648 0
      vertex 3.97156 5.45648 1.6
    endloop
  endfacet
  facet normal 0.946952 0.321376 0
    outer loop
      vertex 3.97156 5.45648 0
      vertex 4 5.37268 1.6
      vertex 4 5.37268 0
    endloop
  endfacet
  facet normal -0.195122 0.980779 0
    outer loop
      vertex 6.54352 3.97156 0
      vertex 6.2741 3.91796 1.6
      vertex 6.54352 3.97156 1.6
    endloop
  endfacet
  facet normal -0.195122 0.980779 0
    outer loop
      vertex 6.2741 3.91796 1.6
      vertex 6.54352 3.97156 0
      vertex 6.2741 3.91796 0
    endloop
  endfacet
  facet normal 0.94694 -0.32141 0
    outer loop
      vertex 3.97156 6.54352 1.6
      vertex 4 6.62731 0
      vertex 4 6.62731 1.6
    endloop
  endfacet
  facet normal 0.94694 -0.32141 0
    outer loop
      vertex 4 6.62731 0
      vertex 3.97156 6.54352 1.6
      vertex 3.97156 6.54352 0
    endloop
  endfacet
  facet normal 0.980778 0.195129 0
    outer loop
      vertex 3.97156 5.45648 1.6
      vertex 3.91796 5.72589 0
      vertex 3.91796 5.72589 1.6
    endloop
  endfacet
  facet normal 0.980778 0.195129 0
    outer loop
      vertex 3.91796 5.72589 0
      vertex 3.97156 5.45648 1.6
      vertex 3.97156 5.45648 0
    endloop
  endfacet
  facet normal 0.195129 0.980778 -0
    outer loop
      vertex 5.72589 3.91796 0
      vertex 5.45648 3.97156 1.6
      vertex 5.72589 3.91796 1.6
    endloop
  endfacet
  facet normal 0.195129 0.980778 0
    outer loop
      vertex 5.45648 3.97156 1.6
      vertex 5.72589 3.91796 0
      vertex 5.45648 3.97156 0
    endloop
  endfacet
  facet normal 0.980779 -0.195122 0
    outer loop
      vertex 3.91796 6.2741 1.6
      vertex 3.97156 6.54352 0
      vertex 3.97156 6.54352 1.6
    endloop
  endfacet
  facet normal 0.980779 -0.195122 0
    outer loop
      vertex 3.97156 6.54352 0
      vertex 3.91796 6.2741 1.6
      vertex 3.91796 6.2741 0
    endloop
  endfacet
  facet normal -0.32141 0.94694 0
    outer loop
      vertex 6.62731 4 0
      vertex 6.54352 3.97156 1.6
      vertex 6.62731 4 1.6
    endloop
  endfacet
  facet normal -0.32141 0.94694 0
    outer loop
      vertex 6.54352 3.97156 1.6
      vertex 6.62731 4 0
      vertex 6.54352 3.97156 0
    endloop
  endfacet
  facet normal 0.321376 0.946952 -0
    outer loop
      vertex 5.45648 3.97156 0
      vertex 5.37268 4 1.6
      vertex 5.45648 3.97156 1.6
    endloop
  endfacet
  facet normal 0.321376 0.946952 0
    outer loop
      vertex 5.37268 4 1.6
      vertex 5.45648 3.97156 0
      vertex 5.37268 4 0
    endloop
  endfacet
  facet normal -0.0653833 0.99786 0
    outer loop
      vertex 6.2741 3.91796 0
      vertex 6 3.9 1.6
      vertex 6.2741 3.91796 1.6
    endloop
  endfacet
  facet normal -0.0653833 0.99786 0
    outer loop
      vertex 6 3.9 1.6
      vertex 6.2741 3.91796 0
      vertex 6 3.9 0
    endloop
  endfacet
  facet normal 0.065381 0.99786 -0
    outer loop
      vertex 6 3.9 0
      vertex 5.72589 3.91796 1.6
      vertex 6 3.9 1.6
    endloop
  endfacet
  facet normal 0.065381 0.99786 0
    outer loop
      vertex 5.72589 3.91796 1.6
      vertex 6 3.9 0
      vertex 5.72589 3.91796 0
    endloop
  endfacet
  facet normal 0.99786 -0.0653833 0
    outer loop
      vertex 3.9 6 1.6
      vertex 3.91796 6.2741 0
      vertex 3.91796 6.2741 1.6
    endloop
  endfacet
  facet normal 0.99786 -0.0653833 0
    outer loop
      vertex 3.91796 6.2741 0
      vertex 3.9 6 1.6
      vertex 3.9 6 0
    endloop
  endfacet
  facet normal 0.99786 0.065381 0
    outer loop
      vertex 3.91796 5.72589 1.6
      vertex 3.9 6 0
      vertex 3.9 6 1.6
    endloop
  endfacet
  facet normal 0.99786 0.065381 0
    outer loop
      vertex 3.9 6 0
      vertex 3.91796 5.72589 1.6
      vertex 3.91796 5.72589 0
    endloop
  endfacet
  facet normal -0.980778 0.195129 0
    outer loop
      vertex 80.8284 5.45648 0
      vertex 80.882 5.72589 1.6
      vertex 80.882 5.72589 0
    endloop
  endfacet
  facet normal -0.980778 0.195129 0
    outer loop
      vertex 80.882 5.72589 1.6
      vertex 80.8284 5.45648 0
      vertex 80.8284 5.45648 1.6
    endloop
  endfacet
  facet normal -0.980779 -0.195122 0
    outer loop
      vertex 80.882 6.2741 0
      vertex 80.8284 6.54352 1.6
      vertex 80.8284 6.54352 0
    endloop
  endfacet
  facet normal -0.980779 -0.195122 0
    outer loop
      vertex 80.8284 6.54352 1.6
      vertex 80.882 6.2741 0
      vertex 80.882 6.2741 1.6
    endloop
  endfacet
  facet normal -0.997851 -0.0655283 0
    outer loop
      vertex 80.9 6 0
      vertex 80.882 6.2741 1.6
      vertex 80.882 6.2741 0
    endloop
  endfacet
  facet normal -0.997851 -0.0655283 0
    outer loop
      vertex 80.882 6.2741 1.6
      vertex 80.9 6 0
      vertex 80.9 6 1.6
    endloop
  endfacet
  facet normal 0.0653833 0.99786 -0
    outer loop
      vertex 78.8 3.9 0
      vertex 78.5259 3.91796 1.6
      vertex 78.8 3.9 1.6
    endloop
  endfacet
  facet normal 0.0653833 0.99786 0
    outer loop
      vertex 78.5259 3.91796 1.6
      vertex 78.8 3.9 0
      vertex 78.5259 3.91796 0
    endloop
  endfacet
  facet normal -0.0653833 0.99786 0
    outer loop
      vertex 79.0741 3.91796 0
      vertex 78.8 3.9 1.6
      vertex 79.0741 3.91796 1.6
    endloop
  endfacet
  facet normal -0.0653833 0.99786 0
    outer loop
      vertex 78.8 3.9 1.6
      vertex 79.0741 3.91796 0
      vertex 78.8 3.9 0
    endloop
  endfacet
  facet normal -0.997851 0.0655259 0
    outer loop
      vertex 80.882 5.72589 0
      vertex 80.9 6 1.6
      vertex 80.9 6 0
    endloop
  endfacet
  facet normal -0.997851 0.0655259 0
    outer loop
      vertex 80.9 6 1.6
      vertex 80.882 5.72589 0
      vertex 80.882 5.72589 1.6
    endloop
  endfacet
  facet normal -0.195136 0.980776 0
    outer loop
      vertex 79.3435 3.97156 0
      vertex 79.0741 3.91796 1.6
      vertex 79.3435 3.97156 1.6
    endloop
  endfacet
  facet normal -0.195136 0.980776 0
    outer loop
      vertex 79.0741 3.91796 1.6
      vertex 79.3435 3.97156 0
      vertex 79.0741 3.91796 0
    endloop
  endfacet
  facet normal -0.321376 0.946952 0
    outer loop
      vertex 79.4273 4 0
      vertex 79.3435 3.97156 1.6
      vertex 79.4273 4 1.6
    endloop
  endfacet
  facet normal -0.321376 0.946952 0
    outer loop
      vertex 79.3435 3.97156 1.6
      vertex 79.4273 4 0
      vertex 79.3435 3.97156 0
    endloop
  endfacet
  facet normal -0.947124 0.320868 0
    outer loop
      vertex 80.8 5.37265 0
      vertex 80.8284 5.45648 1.6
      vertex 80.8284 5.45648 0
    endloop
  endfacet
  facet normal -0.947124 0.320868 0
    outer loop
      vertex 80.8284 5.45648 1.6
      vertex 80.8 5.37265 0
      vertex 80.8 5.37265 1.6
    endloop
  endfacet
  facet normal 0.195136 0.980776 -0
    outer loop
      vertex 78.5259 3.91796 0
      vertex 78.2565 3.97156 1.6
      vertex 78.5259 3.91796 1.6
    endloop
  endfacet
  facet normal 0.195136 0.980776 0
    outer loop
      vertex 78.2565 3.97156 1.6
      vertex 78.5259 3.91796 0
      vertex 78.2565 3.97156 0
    endloop
  endfacet
  facet normal -0.947124 -0.320868 0
    outer loop
      vertex 80.8284 6.54352 0
      vertex 80.8 6.62735 1.6
      vertex 80.8 6.62735 0
    endloop
  endfacet
  facet normal -0.947124 -0.320868 0
    outer loop
      vertex 80.8 6.62735 1.6
      vertex 80.8284 6.54352 0
      vertex 80.8284 6.54352 1.6
    endloop
  endfacet
  facet normal 0.321376 0.946952 -0
    outer loop
      vertex 78.2565 3.97156 0
      vertex 78.1727 4 1.6
      vertex 78.2565 3.97156 1.6
    endloop
  endfacet
  facet normal 0.321376 0.946952 0
    outer loop
      vertex 78.1727 4 1.6
      vertex 78.2565 3.97156 0
      vertex 78.1727 4 0
    endloop
  endfacet
endsolid OpenSCAD_Model
